<?xml version="1.0" encoding="utf-8"?>
<!-- Generator: Adobe Illustrator 16.0.0, SVG Export Plug-In . SVG Version: 6.00 Build 0)  -->
<!DOCTYPE svg PUBLIC "-//W3C//DTD SVG 1.1//EN" "http://www.w3.org/Graphics/SVG/1.1/DTD/svg11.dtd">
<svg version="1.1" id="Layer_1" xmlns="http://www.w3.org/2000/svg" xmlns:xlink="http://www.w3.org/1999/xlink" x="0px" y="0px"
	 width="377px" height="80px" viewBox="0 0 377 80" enable-background="new 0 0 377 80" xml:space="preserve">
<g>
	<defs>
		<rect id="SVGID_1_" x="87.656" y="9.361" width="56.157" height="57.966"/>
	</defs>
	<clipPath id="SVGID_2_">
		<use xlink:href="#SVGID_1_"  overflow="visible"/>
	</clipPath>
	<path clip-path="url(#SVGID_2_)" fill-rule="evenodd" clip-rule="evenodd" fill="#0091D0" d="M121.085,67.125
		c-0.632,0.116-1.266,0.225-1.898,0.331c-0.924,0.154-1.863,0.217-2.798,0.299c-0.832,0.073-1.666,0.116-2.5,0.17
		c-0.092,0.006-0.185-0.006-0.327-0.013c0.096-0.508,0.171-0.995,0.28-1.474c0.401-1.747,1.02-3.424,1.657-5.095
		c0.289-0.761,0.557-1.529,0.863-2.374c-0.411-0.078-0.786-0.186-1.166-0.214c-1.029-0.078-2.06-0.117-3.09-0.183
		c-0.297-0.018-0.601-0.04-0.887-0.121c-0.273-0.077-0.446,0.083-0.646,0.188c-0.043,0.024-0.059,0.143-0.05,0.213
		c0.061,0.594,0.14,1.186,0.194,1.782c0.084,0.914,0.151,1.829,0.227,2.742c0.002,0.028,0.002,0.058,0.002,0.086
		c0.02,1.347,0.041,2.693,0.056,4.041c0.004,0.383-0.044,0.442-0.416,0.421c-1.039-0.062-2.08-0.122-3.117-0.22
		c-0.103-0.01-0.205-0.022-0.308-0.032c-0.037,0.77-0.318,1.523-0.845,2.079c0.358,0.042,0.715,0.091,1.074,0.13
		c1.137,0.125,2.284,0.196,3.428,0.222c1.187,0.028,2.374-0.011,3.562-0.051c0.872-0.03,1.745-0.082,2.613-0.168
		c1.064-0.106,2.125-0.24,3.184-0.391c0.188-0.027,0.374-0.062,0.562-0.093C120.565,68.627,120.701,67.807,121.085,67.125z"/>
	<path clip-path="url(#SVGID_2_)" fill-rule="evenodd" clip-rule="evenodd" fill="#0091D0" d="M81.419,56.041
		c-1.637-1.671-3.062-3.512-4.244-5.532c-1.003-1.71-1.826-3.504-2.406-5.401c-0.404-1.322-0.682-2.671-0.868-4.043
		c-0.198-1.455-0.2-2.914-0.142-4.369c0.066-1.661,0.376-3.296,0.819-4.903c0.482-1.749,1.163-3.417,2.007-5.018
		c0.772-1.468,1.663-2.864,2.72-4.144c0.777-0.941,1.562-1.882,2.42-2.747c1.276-1.291,2.665-2.455,4.137-3.521
		c-0.503-0.563-0.765-1.314-0.789-2.076c-1.374,0.963-2.688,2.011-3.913,3.166c-1.013,0.953-1.944,1.994-2.872,3.032
		c-1.079,1.208-1.987,2.545-2.832,3.928c-1.197,1.963-2.134,4.037-2.804,6.235c-0.741,2.435-1.122,4.922-1.138,7.473
		c0.051,0.815,0.067,1.636,0.162,2.446c0.121,1.042,0.248,2.09,0.474,3.114c0.561,2.547,1.495,4.944,2.75,7.203l1.027,1.711
		c1.355,2.091,2.923,4.009,4.75,5.706c0.805,0.748,1.619,1.489,2.469,2.185c0.438,0.357,0.889,0.69,1.339,1.024
		c0.45-0.614,1.145-1.058,2.086-1.141c-0.987-0.7-1.945-1.447-2.874-2.222C82.902,57.485,82.142,56.779,81.419,56.041z"/>
	<path clip-path="url(#SVGID_2_)" fill-rule="evenodd" clip-rule="evenodd" fill="#0091D0" d="M128.316,9.868
		c0,0.112-0.151-0.806-0.129-0.721c0.012,0.047-0.1-0.277-0.167-0.499c-1.429-0.489-2.896-0.868-4.364-1.226
		c-1.248-0.304-2.518-0.531-3.786-0.734c-1.026-0.164-2.065-0.265-3.104-0.352c-1.206-0.101-2.415-0.181-3.626-0.22
		c-0.873-0.027-1.751,0.021-2.626,0.05c-0.732,0.024-1.465,0.051-2.195,0.114c-1.083,0.094-2.171,0.173-3.242,0.344
		c-1.604,0.255-3.202,0.545-4.786,0.895c-0.892,0.195-1.775,0.427-2.648,0.69c-0.015,0.799-0.068,1.575-0.177,2.336
		c0.324-0.098,0.648-0.192,0.976-0.279c1.679-0.444,3.367-0.859,5.067-1.209c1.126-0.233,2.28-0.355,3.426-0.474
		c1.092-0.113,2.189-0.181,3.287-0.226c1.158-0.047,2.318-0.088,3.475-0.05c1.219,0.038,2.44,0.125,3.649,0.276
		c1.618,0.2,3.237,0.428,4.836,0.743c1.389,0.272,2.771,0.617,4.115,1.053c0.701,0.226,1.396,0.472,2.088,0.726
		C128.374,10.691,128.355,10.278,128.316,9.868z"/>
	<path clip-path="url(#SVGID_2_)" fill-rule="evenodd" clip-rule="evenodd" fill="#0091D0" d="M152.692,35.381
		c-0.107-1.384-0.399-2.747-0.773-4.088c-0.431-1.543-0.978-3.042-1.688-4.478c-0.413-0.833-0.863-1.651-1.335-2.453
		c-1.11-1.887-2.454-3.604-3.948-5.199c-0.356-0.379-0.728-0.747-1.104-1.108c0.812,0.964,0.953,2.438,0.428,3.583
		c0.63,0.731,1.219,1.495,1.774,2.287c0.844,1.204,1.589,2.465,2.224,3.792c0.907,1.9,1.565,3.881,1.978,5.948
		c0.385,1.922,0.468,3.867,0.381,5.814c-0.081,1.853-0.433,3.669-0.967,5.45c-0.472,1.583-1.112,3.093-1.88,4.553
		c-0.804,1.526-1.734,2.974-2.842,4.297c-0.819,0.979-1.666,1.94-2.564,2.848c-1.246,1.26-2.622,2.373-4.063,3.402
		c0.63,0.412,1.037,1.05,1.221,1.759c1.22-0.869,2.39-1.802,3.496-2.821c0.925-0.851,1.804-1.761,2.643-2.701
		c1.096-1.226,2.077-2.545,2.953-3.942c1.327-2.116,2.371-4.354,3.107-6.742c0.613-1.994,0.988-4.034,1.075-6.11
		C152.863,38.11,152.799,36.739,152.692,35.381z"/>
	<path clip-path="url(#SVGID_2_)" fill-rule="evenodd" clip-rule="evenodd" fill="#0091D0" d="M114.775,57.976
		c-2.924-0.002-5.753-0.52-8.505-1.497c-1.714-0.608-3.256-1.519-4.714-2.585c-1.404-1.026-2.73-2.146-3.923-3.412
		c-1.256-1.333-2.385-2.765-3.321-4.345c-0.78-1.32-1.437-2.701-1.921-4.155c-0.37-1.118-0.688-2.257-0.801-3.436
		c-0.1-1.043-0.174-2.091-0.226-3.139c-0.069-1.408,0.26-2.749,0.752-4.058c0.104-0.274,0.229-0.509,0.49-0.656
		c0.056-0.032,0.097-0.089,0.145-0.135c1.041-0.947,2.073-1.903,3.126-2.839c0.729-0.647,1.474-1.274,2.229-1.892
		c0.826-0.675,1.666-1.333,2.509-1.988c0.562-0.435,0.968-0.991,1.3-1.604c0.497-0.92,0.766-1.899,0.837-2.951
		c0.053-0.798-0.071-1.563-0.257-2.326c-0.036-0.15-0.034-0.238,0.103-0.329c0.7-0.463,1.363-0.996,2.102-1.386
		c1.025-0.543,1.989-0.225,2.844,0.462c0.479,0.387,0.851,0.88,1.105,1.442c0.121,0.268,0.217,0.561,0.246,0.851
		c0.083,0.801,0.125,1.606,0.181,2.41c0.039,0.549,0.102,1.101,0.107,1.651c0.007,0.714-0.031,1.43-0.051,2.144
		c-0.018,0.668-0.038,1.335-0.057,2.002c-0.019,0.714-0.037,1.429-0.058,2.144c-0.018,0.601-0.038,1.202-0.055,1.803
		c-0.021,0.752-0.038,1.504-0.059,2.257c-0.017,0.648-0.037,1.296-0.055,1.946c-0.021,0.714-0.037,1.429-0.059,2.143
		c-0.017,0.621-0.038,1.241-0.055,1.861c-0.021,0.733-0.035,1.466-0.059,2.201c-0.013,0.421-0.023,0.844-0.06,1.263
		c-0.025,0.296,0.067,0.526,0.259,0.741c0.691,0.778,1.383,1.555,2.062,2.344c0.977,1.136,1.983,2.25,2.901,3.433
		c0.911,1.174,1.761,2.4,2.578,3.643c1.078,1.642,1.982,3.379,2.648,5.233c0.119,0.333,0.115,0.351-0.234,0.395
		c-0.816,0.103-1.634,0.2-2.452,0.278C115.848,57.939,115.311,57.949,114.775,57.976 M104.66,16.735
		c0,0.449,0.271,0.685,0.787,0.687c0.452,0,0.759-0.323,0.769-0.814c0.006-0.331-0.47-0.685-0.935-0.684
		C104.911,15.925,104.606,16.288,104.66,16.735"/>
	<path clip-path="url(#SVGID_2_)" fill-rule="evenodd" clip-rule="evenodd" fill="#0091D0" d="M111.336,40.104
		c0.163-0.573,0.443-0.992,0.733-1.396c1.09-1.523,2.535-2.621,4.208-3.426c0.993-0.477,2.042-0.79,3.147-0.879
		c0.607-0.047,1.216-0.116,1.824-0.104c1.394,0.028,2.747,0.291,4.043,0.828c1.252,0.516,2.375,1.219,3.376,2.136
		c1.002,0.917,1.836,1.953,2.435,3.169c0.521,1.066,0.854,2.195,0.957,3.385c0.038,0.447,0.075,0.894,0.114,1.34
		c0.003,0.026,0.022,0.05,0.042,0.091c0.555-0.086,0.96-0.42,1.288-0.833c0.4-0.505,0.781-1.031,1.127-1.576
		c0.523-0.826,0.805-1.749,0.938-2.713c0.062-0.445,0.117-0.897,0.11-1.343c-0.034-1.822-0.553-3.481-1.693-4.931
		c-1.226-1.556-2.762-2.658-4.645-3.273c-1.168-0.382-2.372-0.497-3.586-0.416c-1.603,0.108-3.063,0.667-4.421,1.513
		c-0.726,0.454-1.402,0.973-1.957,1.627c-0.262,0.309-0.617,0.283-0.94,0.354c-1.719,0.372-3.313,1.029-4.717,2.09
		c-0.535,0.404-0.984,0.92-1.472,1.386c-0.034,0.032-0.07,0.06-0.16,0.134c-0.027-0.141-0.055-0.239-0.063-0.338
		c-0.146-1.697,0.534-3.151,1.344-4.567c0.75-1.31,1.729-2.433,2.831-3.45c0.82-0.756,1.715-1.432,2.703-1.952
		c0.886-0.466,1.799-0.895,2.736-1.247c0.96-0.362,1.968-0.596,3.003-0.645c0.911-0.041,1.826-0.091,2.736-0.048
		c1.188,0.055,2.356,0.269,3.501,0.606c1.523,0.45,2.947,1.102,4.246,2.018c1.675,1.182,3.125,2.585,4.16,4.367
		c0.842,1.445,1.411,3,1.657,4.659c0.091,0.609,0.129,1.228,0.172,1.844c0.131,1.954-0.264,3.813-1.033,5.603
		c-0.493,1.145-1.113,2.212-1.953,3.135c-0.448,0.494-0.945,0.94-1.411,1.416c-0.167,0.171-0.275,0.104-0.323-0.074
		c-0.068-0.251-0.128-0.512-0.135-0.77c-0.021-0.651-0.014-1.302-0.005-1.953c0.003-0.194-0.058-0.271-0.259-0.264
		c-0.865,0.025-1.731,0.037-2.597,0.062c-0.271,0.007-0.541,0.046-0.812,0.051c-0.265,0.006-0.366,0.215-0.427,0.39
		c-0.19,0.546-0.342,1.106-0.496,1.664c-0.094,0.338-0.235,0.628-0.579,0.786c-0.157,0.072-0.254,0.055-0.344-0.105
		c-0.197-0.351-0.423-0.686-0.617-1.038c-0.126-0.228-0.301-0.208-0.475-0.115c-0.288,0.153-0.561,0.339-0.847,0.497
		c-0.2,0.109-0.414,0.193-0.649,0.301c-0.161-0.592-0.294-1.125-0.451-1.651c-0.497-1.671-1.127-3.29-2.19-4.692
		c-1.435-1.891-3.34-3.038-5.693-3.387c-0.766-0.113-1.552-0.197-2.322-0.161c-2.091,0.094-4.063,0.638-5.86,1.743
		C111.562,39.995,111.482,40.029,111.336,40.104"/>
	<path clip-path="url(#SVGID_2_)" fill-rule="evenodd" clip-rule="evenodd" fill="#0091D0" d="M112.065,41.101
		c0.125-0.111,0.243-0.234,0.378-0.334c1.2-0.882,2.544-1.441,4.013-1.648c1.101-0.156,2.213-0.135,3.302,0.123
		c0.589,0.139,1.182,0.292,1.744,0.51c0.89,0.347,1.664,0.884,2.363,1.541c0.862,0.815,1.542,1.762,2.053,2.821
		c0.477,0.989,0.741,2.055,0.992,3.124c0.272,1.165,0.537,2.336,1.017,3.441c0.297,0.683,0.647,1.333,1.146,1.893
		c0.06,0.067,0.102,0.153,0.151,0.229c-0.413,0.356-0.892,0.363-1.374,0.332c-0.973-0.061-1.738-0.543-2.374-1.243
		c-0.66-0.727-1.063-1.602-1.411-2.509c-0.408-1.065-0.793-2.144-1.287-3.17c-0.4-0.83-0.9-1.621-1.434-2.375
		c-0.585-0.828-1.396-1.43-2.266-1.949c-0.88-0.526-1.833-0.869-2.842-1c-0.552-0.071-1.122-0.034-1.68,0.009
		c-0.632,0.049-1.259,0.16-1.888,0.242c-0.187,0.024-0.375,0.04-0.562,0.058C112.094,41.163,112.079,41.133,112.065,41.101"/>
	<path clip-path="url(#SVGID_2_)" fill-rule="evenodd" clip-rule="evenodd" fill="#0091D0" d="M112.234,42.173
		c0.17-0.076,0.336-0.203,0.51-0.217c0.857-0.074,1.696-0.338,2.568-0.249c1.535,0.156,2.968,0.565,4.194,1.566
		c0.578,0.473,0.992,1.067,1.446,1.639c0.773,0.968,1.235,2.091,1.671,3.23c0.336,0.875,0.651,1.76,1.035,2.613
		c0.617,1.366,1.496,2.518,2.913,3.148c0.354,0.159,0.737,0.259,1.112,0.373c0.288,0.09,0.317,0.157,0.111,0.371
		c-0.438,0.455-0.994,0.667-1.609,0.694c-0.898,0.04-1.78-0.081-2.6-0.474c-0.743-0.356-1.334-0.9-1.823-1.556
		c-0.655-0.878-1.096-1.87-1.553-2.857c-0.531-1.147-1.072-2.296-1.709-3.388c-0.396-0.678-0.971-1.254-1.479-1.867
		c-0.604-0.726-1.328-1.319-2.114-1.834c-0.728-0.478-1.526-0.797-2.377-0.982c-0.095-0.02-0.186-0.056-0.277-0.083
		C112.247,42.255,112.24,42.215,112.234,42.173"/>
	<path clip-path="url(#SVGID_2_)" fill-rule="evenodd" clip-rule="evenodd" fill="#0091D0" d="M107.904,12.172
		c0.299-0.452,0.766-0.745,1.316-0.873c0.636-0.149,1.267-0.149,1.769,0.375c0.192,0.202,0.308,0.44,0.297,0.735
		c-0.014,0.386,0.009,0.773-0.017,1.159c-0.012,0.193,0.103,0.212,0.217,0.206c0.117-0.006,0.237-0.054,0.347-0.105
		c0.959-0.441,2.064,0.162,2.412,1.113c0.132,0.356,0.104,0.779-0.16,1.099c-0.267,0.322-0.576,0.608-0.87,0.905
		c-0.091,0.091-0.195,0.167-0.287,0.243c0.231,0.208,0.482,0.374,0.655,0.598c0.546,0.71,0.243,1.832-0.619,2.25
		c-0.266,0.128-0.591,0.167-0.893,0.186c-0.502,0.031-1.01,0.05-1.51,0.005c-0.549-0.05-0.812-0.383-0.8-0.933
		c0.028-1.487-0.531-2.719-1.591-3.741c-0.195-0.188-0.366-0.403-0.57-0.579c-0.326-0.285-0.742-0.337-1.151-0.4
		c-0.239-0.036-0.485-0.057-0.716-0.128c-0.329-0.102-0.649-0.404-0.621-0.836c0.03-0.462,0.124-0.896,0.325-1.32
		c0.395-0.825,1.273-0.79,1.874-0.453C107.53,11.8,107.704,12.001,107.904,12.172"/>
	<path clip-path="url(#SVGID_2_)" fill-rule="evenodd" clip-rule="evenodd" fill="#0091D0" d="M124.521,56.32
		c-0.105,0.425-0.425,0.57-0.74,0.722c-0.794,0.38-1.646,0.394-2.501,0.395c-0.494,0.001-0.841-0.211-1.091-0.678
		c-0.531-1.001-1.09-1.991-1.693-2.95c-1.021-1.625-2.049-3.249-3.141-4.826c-0.825-1.19-1.746-2.316-2.646-3.452
		c-0.528-0.667-1.104-1.299-1.65-1.951c-0.058-0.07-0.066-0.18-0.098-0.271c0.083-0.024,0.167-0.071,0.25-0.069
		c1.405,0.024,2.665,0.488,3.784,1.317c1.352,1.002,2.354,2.313,3.151,3.773c0.833,1.523,1.595,3.085,2.416,4.617
		c0.288,0.541,0.591,1.105,1.01,1.54c0.426,0.444,0.986,0.768,1.518,1.096C123.541,55.861,124.035,56.073,124.521,56.32"/>
	<path clip-path="url(#SVGID_2_)" fill-rule="evenodd" clip-rule="evenodd" fill="#0091D0" d="M110.273,67.332
		c-0.074-0.182-0.17-0.359-0.219-0.547c-0.368-1.413-0.707-2.831-1.094-4.238c-0.297-1.082-0.602-2.163-1.111-3.173
		c-0.185-0.365-0.304-0.756-0.195-1.19c0.045-0.18,0.115-0.257,0.277-0.225c0.466,0.089,0.938,0.163,1.389,0.304
		c0.315,0.101,0.495,0.377,0.544,0.722c0.148,1.052,0.322,2.104,0.446,3.16c0.079,0.668,0.086,1.345,0.122,2.019
		c0.023,0.422,0.063,0.844,0.052,1.266c-0.017,0.626-0.072,1.25-0.111,1.875C110.34,67.313,110.307,67.323,110.273,67.332"/>
	<path clip-path="url(#SVGID_2_)" fill-rule="evenodd" clip-rule="evenodd" fill="#0091D0" d="M127.973,31.389
		c0.507,0.108,0.951,0.176,1.38,0.3c0.753,0.217,0.867,0.372,0.892,1.138c0.029,0.892,0.062,1.785,0.051,2.678
		c-0.007,0.386-0.121,0.771-0.19,1.156c-0.037,0.205-0.166,0.21-0.306,0.11c-0.39-0.277-0.778-0.552-1.152-0.849
		c-0.263-0.21-0.508-0.446-0.74-0.689c-0.08-0.084-0.136-0.226-0.139-0.343c-0.012-0.81-0.027-1.621,0.003-2.43
		C127.783,32.107,127.9,31.756,127.973,31.389"/>
	<path clip-path="url(#SVGID_2_)" fill-rule="evenodd" clip-rule="evenodd" fill="#0091D0" d="M99.438,12.016
		c0.321,0.067,0.651,0.103,0.96,0.208c0.61,0.206,1.133,0.574,1.61,1c0.406,0.363,0.799,0.741,1.214,1.126
		c0.175-0.47,0.049-0.938-0.061-1.382c-0.173-0.699-0.414-1.38-0.625-2.069c-0.032-0.111-0.056-0.226-0.083-0.339
		c0.022-0.018,0.044-0.035,0.065-0.052c0.208,0.149,0.427,0.286,0.62,0.453c0.911,0.782,1.459,1.771,1.626,2.962
		c0.037,0.264,0.026,0.49-0.251,0.68c-0.65,0.443-1.264,0.937-2.047,1.144c-0.26,0.069-0.416,0.004-0.562-0.219
		c-0.487-0.755-0.978-1.506-1.494-2.24c-0.214-0.306-0.494-0.565-0.745-0.844c-0.092-0.102-0.187-0.202-0.28-0.302
		C99.402,12.099,99.42,12.058,99.438,12.016"/>
	<path clip-path="url(#SVGID_2_)" fill-rule="evenodd" clip-rule="evenodd" fill="#0091D0" d="M126.819,31.235
		c0.245,1.083,0.143,2.131,0.006,3.258c-0.301-0.051-0.599-0.068-0.872-0.157c-0.371-0.123-0.729-0.292-1.082-0.461
		c-0.092-0.045-0.202-0.173-0.205-0.264c-0.016-0.595-0.034-1.195,0.01-1.788c0.027-0.381,0.252-0.539,0.76-0.58
		C125.888,31.208,126.345,31.235,126.819,31.235"/>
	<path clip-path="url(#SVGID_2_)" fill-rule="evenodd" clip-rule="evenodd" fill="#0091D0" d="M101.793,19.928
		c0.098,0.514,0.005,0.937-0.192,1.321c-0.285,0.557-0.569,1.125-0.938,1.625c-0.304,0.413-0.761,0.676-1.319,0.59
		c-0.103-0.015-0.26-0.137-0.269-0.222c-0.081-0.741,0.002-1.459,0.561-2.009c0.233-0.23,0.554-0.373,0.842-0.544
		C100.899,20.437,101.327,20.197,101.793,19.928"/>
	<path clip-path="url(#SVGID_2_)" fill-rule="evenodd" clip-rule="evenodd" fill="#0091D0" d="M121.188,33.24
		c0.049-0.382,0.319-0.593,0.575-0.745c0.479-0.284,0.996-0.507,1.509-0.732c0.221-0.097,0.48,0.064,0.493,0.35
		c0.02,0.376-0.038,0.759-0.084,1.138c-0.009,0.065-0.112,0.162-0.185,0.174C122.719,33.556,121.96,33.443,121.188,33.24"/>
	<path clip-path="url(#SVGID_2_)" fill-rule="evenodd" clip-rule="evenodd" fill="#231F20" d="M104.66,16.735
		c-0.054-0.447,0.251-0.81,0.621-0.811c0.465-0.001,0.94,0.353,0.935,0.684c-0.01,0.491-0.316,0.814-0.769,0.814
		C104.931,17.419,104.66,17.184,104.66,16.735"/>
	
		<rect x="107.613" y="67.434" clip-path="url(#SVGID_2_)" fill-rule="evenodd" clip-rule="evenodd" fill="#FFFFFF" width="3.349" height="4.567"/>
	<polyline clip-path="url(#SVGID_2_)" fill-rule="evenodd" clip-rule="evenodd" fill="#FFFFFF" points="112.555,71.113 
		113.578,67.867 114.555,67.604 114.329,71.49 	"/>
	<path clip-path="url(#SVGID_2_)" fill-rule="evenodd" clip-rule="evenodd" fill="#FFFFFF" d="M88.901,68.625
		c-1.34,0.166-2.511-0.914-2.948-2.136c-3.067-0.895-2.755-6.137,0.943-6.137c1.478,0,2.413,0.839,2.811,1.902
		c0.103-0.013,0.206-0.026,0.31-0.039V26.154H68.785v46.877h21.231v-4.544C89.645,68.532,89.272,68.58,88.901,68.625z"/>
	<path clip-path="url(#SVGID_2_)" fill-rule="evenodd" clip-rule="evenodd" fill="#FFFFFF" d="M91.307,16.101
		c-0.241,0-0.476-0.035-0.703-0.09c-0.491,0.757-1.324,1.293-2.504,1.293c-2.645,0-3.559-2.683-2.743-4.538
		c-0.542-1.234-0.32-2.834,0.668-3.768h-15.2v18.003h21.74V15.826C92.178,16,91.753,16.101,91.307,16.101z"/>
	<path clip-path="url(#SVGID_2_)" fill-rule="evenodd" clip-rule="evenodd" fill="#FFFFFF" d="M127.93,5.558V3.904h-22.496v5.944
		h22.496V8.297C127.568,7.375,127.541,6.387,127.93,5.558z"/>
	<path clip-path="url(#SVGID_2_)" fill-rule="evenodd" clip-rule="evenodd" fill="#FFFFFF" d="M126.238,2.545v20.042h13.283
		c-0.36-0.325-0.62-0.738-0.785-1.188c-0.031-0.028-0.055-0.061-0.085-0.089c-2.166-0.053-3.132-1.933-2.903-3.62
		c-2.018-0.059-3.919-0.33-5.804-1.214c-1.197-0.562-1.688-1.999-1.479-3.258c-0.046-0.21-0.073-0.428-0.073-0.652
		c-0.001-0.897,0.014-1.802-0.075-2.697c0,0.112-0.151-0.806-0.129-0.721c0.022,0.083-0.346-0.995-0.169-0.612
		c-0.715-1.553-0.456-3.363,1.124-4.289c1.363-0.799,3.575-0.428,4.288,1.125c0.895,1.945,1.151,3.936,1.211,6.014
		c0.698,0.041,1.397,0.051,2.097,0.051c2.292,0.001,3.283,2.017,2.977,3.761c0.451,0.138,0.837,0.36,1.14,0.658
		c1.431,0.042,2.338,0.875,2.718,1.928c1.336,1.207,1.342,3.598,0.006,4.804h6.562V2.545H126.238z"/>
	<path clip-path="url(#SVGID_2_)" fill-rule="evenodd" clip-rule="evenodd" fill="#FFFFFF" d="M144.235,21.704
		c-0.351,0.718-0.972,1.293-1.861,1.514v33.408h13.542V21.704H144.235z"/>
	<path clip-path="url(#SVGID_2_)" fill-rule="evenodd" clip-rule="evenodd" fill="#FFFFFF" d="M128.316,9.868
		c0,0.112-0.151-0.806-0.129-0.721c0.022,0.083-0.346-0.995-0.169-0.612c-0.715-1.553-0.456-3.363,1.124-4.289
		c0.024-0.015,0.055-0.022,0.082-0.037V2.545h-9.144v8.667h8.305C128.379,10.763,128.36,10.314,128.316,9.868z"/>
	<path clip-path="url(#SVGID_2_)" fill-rule="evenodd" clip-rule="evenodd" fill="#FFFFFF" d="M96.133,5.093
		c0.901,0.556,1.517,1.544,1.517,2.662c-0.002,1.689-0.151,3.263-0.625,4.812h0.805V5.093H96.133z"/>
	
		<rect x="97.828" y="2.545" clip-path="url(#SVGID_2_)" fill-rule="evenodd" clip-rule="evenodd" fill="#FFFFFF" width="8.387" height="7.304"/>
	<path clip-path="url(#SVGID_2_)" fill-rule="evenodd" clip-rule="evenodd" fill="#FFFFFF" d="M94.501,1.696v2.925
		c0.005,0,0.01-0.002,0.014-0.002c1.707,0,3.136,1.426,3.135,3.135c-0.001,0.948-0.053,1.859-0.179,2.752h2.97V1.696H94.501z"/>
	<path clip-path="url(#SVGID_2_)" fill-rule="evenodd" clip-rule="evenodd" fill="#FFFFFF" d="M120.081,59.274v13.757h29.062V59.274
		H120.081z M135.812,67.824c-0.617,0-1.135-0.154-1.563-0.403c-0.014,0-0.026,0.002-0.04,0.002c-0.139,0-0.271-0.008-0.402-0.023
		c-0.128,0.015-0.262,0.023-0.399,0.023c-0.101,0-0.197-0.007-0.291-0.014c-0.229,0.582-0.625,1.084-1.132,1.442
		c-0.211,1.362-1.206,2.581-2.988,2.582c-1.68,0-3.173,0.008-4.379,0.289c-1.662,0.388-3.39-0.494-3.855-2.189
		c-0.439-1.597,0.525-3.467,2.188-3.855c0.04-0.009,0.078-0.015,0.117-0.025c0.015-0.196,0.045-0.394,0.1-0.593
		c0.443-1.611,2.223-2.69,3.856-2.189c0.239,0.074,0.482,0.135,0.729,0.185c0.156,0.013,0.611,0.066,0.705,0.071
		c0.036,0.001,0.071,0,0.107,0.001c0.381-1.096,1.327-1.972,2.838-1.972c0.365,0,0.691,0.057,0.99,0.15
		c0.304-0.097,0.642-0.15,1.015-0.15c0.098,0,0.189,0.011,0.282,0.019c0.131-0.128,0.273-0.244,0.432-0.347
		c0.492-0.749,1.321-1.276,2.493-1.276c3.066,0,3.804,3.603,2.22,5.346C138.748,66.392,137.745,67.824,135.812,67.824z"/>
	
		<rect x="141.14" y="54.009" clip-path="url(#SVGID_2_)" fill-rule="evenodd" clip-rule="evenodd" fill="#FFFFFF" width="13.588" height="7.812"/>
	<path clip-path="url(#SVGID_2_)" fill-rule="evenodd" clip-rule="evenodd" fill="#FFFFFF" d="M138.189,55.347v4.602
		c0.71,0.413,1.162,1.105,1.352,1.873h4.486v-6.475H138.189z"/>
	<path clip-path="url(#SVGID_2_)" fill-rule="evenodd" clip-rule="evenodd" fill="#FFFFFF" d="M120.762,69.532
		c-0.176-0.638-0.119-1.316,0.109-1.929h-6.316v5.427h6.634V70.43C121.008,70.162,120.854,69.869,120.762,69.532z"/>
	<path clip-path="url(#SVGID_2_)" fill-rule="evenodd" clip-rule="evenodd" fill="#FFFFFF" d="M123.167,65.059
		c0.033-0.12,0.075-0.236,0.123-0.35h-4.153v5.607h1.979c-0.146-0.24-0.274-0.495-0.354-0.785c-0.439-1.597,0.525-3.467,2.188-3.855
		c0.039-0.009,0.078-0.015,0.117-0.024C123.082,65.456,123.112,65.258,123.167,65.059z"/>
	<path clip-path="url(#SVGID_2_)" fill-rule="evenodd" clip-rule="evenodd" fill="#FFFFFF" d="M120.762,69.532
		c-0.396-1.438,0.353-3.085,1.718-3.686v-0.288h-4.739v4.758h3.375C120.969,70.077,120.841,69.822,120.762,69.532z"/>
	<path clip-path="url(#SVGID_2_)" fill-rule="evenodd" clip-rule="evenodd" fill="#FFFFFF" d="M89.336,60.123v1.423
		c0.154,0.218,0.269,0.459,0.363,0.709c2.947-0.369,5.884-0.766,8.793-1.39c2.447-0.526,4.019,1.603,3.917,3.496h1.729
		c4.042,0,4.042,6.269,0,6.269H96.52c-0.987,0-1.732-0.375-2.237-0.941c-0.293,0.089-0.615,0.139-0.971,0.139
		c-1.251,0-2.114-0.601-2.591-1.43c-0.461,0.057-0.923,0.115-1.385,0.172V72h18.277V60.123H89.336z"/>
</g>
<g>
	<path fill="#231F20" d="M19.446,23.315c-0.773,0-0.876,0.567-0.876,1.031v32.845c0,0.463,0.103,1.031,0.876,1.031l3.196,0.052v0.36
		c-2.062,0-5.26-0.051-7.321-0.051c-2.166,0-5.157,0.051-7.322,0.051v-0.36l3.094-0.052c0.773,0,0.877-0.568,0.877-1.031V24.347
		c0-0.464-0.104-1.031-0.877-1.031H8.875c-1.392,0-3.196,2.167-4.794,4.744c-0.929,1.546-2.012,3.814-2.373,4.795H1.399l0.618-9.952
		h26.504l0.618,9.952h-0.309c-0.414-1.187-1.29-2.94-2.373-4.795c-1.649-2.785-3.402-4.744-4.795-4.744H19.446z"/>
	<path fill="#231F20" d="M39.811,40.228v16.964c0,0.463,0.104,1.031,0.877,1.031l2.784,0.052v0.36c-2.062,0-4.847-0.051-6.909-0.051
		c-2.166,0-5.002,0.051-7.167,0.051v-0.36l2.939-0.052c0.772,0,0.876-0.568,0.876-1.031V24.347c0-0.464-0.104-1.031-0.876-1.031
		l-2.939-0.052v-0.361c2.165,0,5.001,0.052,7.167,0.052c2.062,0,4.95-0.052,7.013-0.052v0.361l-2.888,0.052
		c-0.772,0-0.877,0.567-0.877,1.031v15.469h10.982V24.347c0-0.464-0.103-1.031-0.876-1.031l-2.888-0.052v-0.361
		c2.063,0,5.157,0.052,7.219,0.052c2.166,0,4.795-0.052,6.961-0.052v0.361l-2.938,0.052c-0.773,0-0.877,0.567-0.877,1.031v32.845
		c0,0.463,0.104,1.031,0.877,1.031l2.938,0.052v0.36c-2.166,0-4.795-0.051-6.961-0.051c-2.062,0-5.053,0.051-7.115,0.051v-0.36
		l2.784-0.052c0.773,0,0.876-0.568,0.876-1.031V40.228H39.811z"/>
	<path fill="#231F20" d="M79.158,58.223c2.631,0,4.848-2.423,6.137-4.486c1.289-2.063,2.888-5.62,3.146-6.753h0.361l-0.724,11.652
		l-18.51-0.051c-2.166,0-5.002,0.051-7.167,0.051v-0.36l2.938-0.052c0.774,0,0.877-0.568,0.877-1.031V24.347
		c0-0.464-0.103-1.031-0.877-1.031l-2.938-0.052v-0.361c2.165,0,5.001,0.052,7.167,0.052l17.687-0.052l0.36,10.003h-0.36
		c-0.311-1.083-1.394-3.352-2.424-5.208c-1.135-2.062-3.249-4.383-4.796-4.383h-6.343c-0.773,0-0.876,0.567-0.876,1.031v15.366
		c6.136,0,7.684-1.65,8.508-7.271h0.361v15.006h-0.413c-0.979-6.498-3.402-7.322-8.456-7.322v17.066
		c0,0.463,0.103,1.031,0.876,1.031H79.158z"/>
</g>
<g>
	<path fill="#231F20" d="M160.264,14.73c5.236,0,13.64,1.746,13.64,10.988c0,7.691-6.399,10.536-12.604,10.858
		c4.523,0.711,7.821,1.875,10.147,5.817c1.163,1.939,1.356,5.107,1.615,7.757c0.646,7.498,1.875,8.855,4.009,8.855
		c1.292,0,2.325-0.582,3.231-1.099l0.259,0.453c-1.94,1.098-4.267,2.133-6.98,2.133c-4.913,0-9.373-2.133-9.762-11.57
		c-0.129-3.426-0.193-8.208-1.938-10.212c-1.035-1.165-2.585-1.811-3.944-1.811h-4.201v20.813c0,0.582,0.131,1.293,1.099,1.293
		l3.686,0.064v0.453c-2.587,0-6.271-0.065-8.855-0.065c-2.716,0-6.271,0.065-8.985,0.065v-0.453l3.685-0.064
		c0.97,0,1.1-0.711,1.1-1.293V16.54c0-0.582-0.13-1.292-1.1-1.292l-3.685-0.064V14.73c2.715,0,6.27,0.064,8.985,0.064
		C153.22,14.795,156.708,14.73,160.264,14.73z M153.735,36.384c8.985,0.259,10.988-1.486,10.988-10.406
		c0-8.015-2.909-10.73-8.272-10.73h-1.617c-0.968,0-1.099,0.711-1.099,1.292V36.384z"/>
</g>
<g>
	<path fill="#231F20" d="M197.999,57.992c2.621,0,4.827-2.414,6.111-4.468c1.284-2.055,2.877-5.598,3.133-6.728h0.359l-0.719,11.607
		l-18.436-0.052c-2.158,0-4.983,0.052-7.14,0.052v-0.36l2.927-0.051c0.771,0,0.874-0.565,0.874-1.028V24.251
		c0-0.463-0.104-1.028-0.874-1.028l-2.927-0.052v-0.358c2.156,0,4.981,0.051,7.14,0.051l17.613-0.051l0.36,9.963h-0.36
		c-0.307-1.079-1.385-3.337-2.413-5.187c-1.13-2.055-3.236-4.366-4.776-4.366h-6.316c-0.77,0-0.873,0.564-0.873,1.028v15.304
		c6.111,0,7.653-1.643,8.474-7.242h0.36v14.945h-0.411c-0.977-6.471-3.391-7.292-8.423-7.292v16.998
		c0,0.463,0.104,1.028,0.873,1.028H197.999z"/>
</g>
<g>
	<path fill="#231F20" d="M212.238,24.207c0-0.463-0.104-1.027-0.874-1.027l-2.927-0.052v-0.36c2.158,0,4.981,0.052,7.139,0.052
		l8.423-0.052c4.161,0,10.836,1.541,10.836,9.347c0,8.011-5.906,10.477-11.76,10.425c-1.541,0-2.775-0.153-4.263-0.462V56.92
		c0,0.463,0.102,1.027,0.872,1.027L222.611,58v0.359c-2.055,0-4.981-0.052-7.035-0.052c-2.157,0-4.98,0.052-7.139,0.052V58
		l2.927-0.053c0.771,0,0.874-0.564,0.874-1.027V24.207z M218.812,41.617c1.23,0.307,2.259,0.411,3.132,0.411
		c3.799,0,5.648-3.646,5.648-9.707c0-6.881-2.31-9.141-6.574-9.141h-1.334c-0.771,0-0.872,0.564-0.872,1.027V41.617z"/>
	<path fill="#231F20" d="M249.857,58.259c-9.539,0-13.643-8.946-13.643-17.745c0-8.849,4.151-17.844,13.643-17.844
		c8.947,0,13.743,7.612,13.743,17.844C263.601,50.746,258.805,58.259,249.857,58.259z M256.086,30.479
		c-0.494-4.695-2.819-7.513-6.229-7.513c-3.313,0-5.635,2.966-6.128,7.513c-0.248,2.126-0.496,5.092-0.496,10.035
		c0,5.041,0.248,7.661,0.496,9.935c0.493,4.695,2.814,7.514,6.128,7.514c3.409,0,5.784-2.867,6.229-7.514
		c0.246-2.62,0.494-4.943,0.494-9.935C256.58,35.67,256.283,32.556,256.086,30.479z"/>
</g>
<g>
	<path fill="#231F20" d="M278.777,22.813c4.074,0,10.609,1.357,10.609,8.545c0,5.981-4.979,8.194-9.804,8.445
		c3.52,0.553,6.081,1.458,7.893,4.525c0.905,1.508,1.056,3.971,1.256,6.032c0.502,5.832,1.459,6.887,3.117,6.887
		c1.007,0,1.81-0.453,2.514-0.854l0.2,0.352c-1.507,0.854-3.317,1.658-5.429,1.658c-3.821,0-7.289-1.658-7.591-8.999
		c-0.1-2.664-0.149-6.384-1.508-7.942c-0.803-0.904-2.012-1.407-3.065-1.407h-3.269v16.187c0,0.453,0.101,1.005,0.856,1.005
		l2.863,0.05v0.352c-2.011,0-4.875-0.05-6.887-0.05c-2.11,0-4.876,0.05-6.986,0.05v-0.352l2.865-0.05
		c0.755,0,0.855-0.553,0.855-1.005V24.221c0-0.454-0.101-1.006-0.855-1.006l-2.865-0.051v-0.351c2.11,0,4.876,0.049,6.986,0.049
		C273.3,22.862,276.013,22.813,278.777,22.813z M273.701,39.653c6.988,0.201,8.546-1.157,8.546-8.093
		c0-6.233-2.262-8.344-6.436-8.344h-1.254c-0.756,0-0.856,0.552-0.856,1.006V39.653z"/>
</g>
<g>
	<path fill="#231F20" d="M309.021,23.224c-0.771,0-0.872,0.564-0.872,1.028v32.712c0,0.463,0.102,1.028,0.872,1.028l3.185,0.051
		v0.36c-2.054,0-5.239-0.052-7.293-0.052c-2.159,0-5.137,0.052-7.294,0.052v-0.36l3.084-0.051c0.769,0,0.872-0.565,0.872-1.028
		V24.251c0-0.463-0.104-1.028-0.872-1.028h-2.21c-1.386,0-3.185,2.158-4.775,4.725c-0.926,1.541-2.006,3.8-2.364,4.775h-0.307
		l0.615-9.911h26.397l0.616,9.911h-0.309c-0.409-1.181-1.283-2.926-2.362-4.775c-1.643-2.774-3.389-4.725-4.776-4.725H309.021z"/>
</g>
<g>
	<path fill="#231F20" d="M336.229,57.992c2.618,0,4.826-2.414,6.11-4.468c1.284-2.055,2.877-5.598,3.134-6.728h0.36l-0.721,11.607
		l-18.438-0.052c-2.157,0-4.98,0.052-7.138,0.052v-0.36l2.928-0.051c0.771,0,0.873-0.565,0.873-1.028V24.251
		c0-0.463-0.103-1.028-0.873-1.028l-2.928-0.052v-0.358c2.157,0,4.98,0.051,7.138,0.051l17.617-0.051l0.359,9.963h-0.359
		c-0.311-1.079-1.388-3.337-2.415-5.187c-1.129-2.055-3.236-4.366-4.776-4.366h-6.316c-0.77,0-0.872,0.564-0.872,1.028v15.304
		c6.111,0,7.65-1.643,8.473-7.242h0.359v14.945h-0.411c-0.974-6.471-3.388-7.292-8.421-7.292v16.998
		c0,0.463,0.103,1.028,0.872,1.028H336.229z"/>
	<path fill="#231F20" d="M361.217,22.813c4.071,0,10.605,1.357,10.605,8.545c0,5.981-4.976,8.194-9.802,8.445
		c3.519,0.553,6.082,1.458,7.891,4.525c0.905,1.508,1.056,3.971,1.258,6.032c0.503,5.832,1.458,6.887,3.117,6.887
		c1.005,0,1.81-0.453,2.512-0.854L377,56.745c-1.509,0.854-3.319,1.658-5.43,1.658c-3.819,0-7.288-1.658-7.591-8.999
		c-0.101-2.664-0.148-6.384-1.509-7.942c-0.803-0.904-2.01-1.407-3.064-1.407h-3.268v16.187c0,0.453,0.1,1.005,0.854,1.005
		l2.866,0.05v0.352c-2.012,0-4.876-0.05-6.888-0.05c-2.111,0-4.875,0.05-6.985,0.05v-0.352l2.866-0.05
		c0.752,0,0.853-0.553,0.853-1.005V24.221c0-0.454-0.101-1.006-0.853-1.006l-2.866-0.051v-0.351c2.11,0,4.874,0.049,6.985,0.049
		C355.736,22.862,358.451,22.813,361.217,22.813z M356.139,39.653c6.987,0.201,8.545-1.157,8.545-8.093
		c0-6.233-2.262-8.344-6.434-8.344h-1.258c-0.754,0-0.854,0.552-0.854,1.006V39.653z"/>
</g>
</svg>
