<svg xmlns="http://www.w3.org/2000/svg" xmlns:xlink="http://www.w3.org/1999/xlink" version="1.1" x="0px" y="0px" viewBox="0 0 48 37.5" xml:space="preserve"><g transform="translate(-90 -140)"><g xmlns="http://www.w3.org/2000/svg" xmlns:xlink="http://www.w3.org/1999/xlink"><g><path d="M96,142l-3,3l2,2l2-2v-3H96z"/></g><g><path d="M102,141l-4,1v1l1,2h3l1-1v-2L102,141z"/></g><g><path d="M108,144h-1l-1,1h-1l1,3h5L108,144z"/></g><rect x="113" y="148" width="5" height="2"/><rect x="115" y="151" width="3" height="2"/><rect x="118" y="154" width="2" height="1"/><polygon points="123,152 123,151 121,151 121,150 119,150 119,152 120,152 120,154 121,154 121,155 123,155 123,154 125,154     125,152   "/><g><path d="M134,163l-1-1h-1v-2l-3-2h-1l-2-1h-1v3l-2,2l2,3v3l2,2l2-2l2-1h1l3-3v-1H134z"/></g></g></g><text x="0" y="45" fill="#000000" font-size="5px" font-weight="bold" font-family="'Helvetica Neue', Helvetica, Arial-Unicode, Arial, Sans-serif">Created by Hea Poh Lin</text><text x="0" y="50" fill="#000000" font-size="5px" font-weight="bold" font-family="'Helvetica Neue', Helvetica, Arial-Unicode, Arial, Sans-serif">from the Noun Project</text></svg>