<svg xmlns="http://www.w3.org/2000/svg" xmlns:xlink="http://www.w3.org/1999/xlink" version="1.1" x="0px" y="0px" viewBox="0 0 38 37.5" xml:space="preserve"><g transform="translate(-90 -800)"><g xmlns="http://www.w3.org/2000/svg" xmlns:xlink="http://www.w3.org/1999/xlink"><path d="M121,818l-4-5v-2l-3-3h-1v-1h-4l-5-4l-3-2l-4,2l1,1v1h-2l-1,2h-1l-1,2h1l4,7h1l1,2v2l1,2l2,1l1,3h1l1,2l1-2l6,2l2-3h4l6-2    l1-4L121,818z"/></g></g><text x="0" y="45" fill="#000000" font-size="5px" font-weight="bold" font-family="'Helvetica Neue', Helvetica, Arial-Unicode, Arial, Sans-serif">Created by Hea Poh Lin</text><text x="0" y="50" fill="#000000" font-size="5px" font-weight="bold" font-family="'Helvetica Neue', Helvetica, Arial-Unicode, Arial, Sans-serif">from the Noun Project</text></svg>