<svg xmlns="http://www.w3.org/2000/svg" xmlns:xlink="http://www.w3.org/1999/xlink" version="1.1" x="0px" y="0px" viewBox="0 0 30 37.5" xml:space="preserve"><g transform="translate(-168 -740)"><g xmlns="http://www.w3.org/2000/svg" xmlns:xlink="http://www.w3.org/1999/xlink"><polygon points="191.333,743 190,741 189,741 189,745 187,745 187,747 187,749 188,748 188,747 190,747 190,748 191,748 191,747     193,745 194,745 194,743   "/><polygon points="187,750 187,752 186,756 183,757 183,756 182,756 182,758 181,759 177,759 174,761 174,762 175,762 178,761     180,761 180,763 181,763 182,762 182,761 184,761 185,760.5 185,761 186,761 186,760 187,759.667 187,760 188,760 188,759.333     189,759 189,756 189,754 190,753 190,751 188.5,748.5   "/><polygon points="173,763 172,763 172,765 173,765 173,767 174,767 174,766 175,766 175,763 174,763 174,762 173,762   "/><rect x="172" y="768" width="2" height="1"/></g></g><text x="0" y="45" fill="#000000" font-size="5px" font-weight="bold" font-family="'Helvetica Neue', Helvetica, Arial-Unicode, Arial, Sans-serif">Created by Hea Poh Lin</text><text x="0" y="50" fill="#000000" font-size="5px" font-weight="bold" font-family="'Helvetica Neue', Helvetica, Arial-Unicode, Arial, Sans-serif">from the Noun Project</text></svg>