<svg xmlns="http://www.w3.org/2000/svg" xmlns:xlink="http://www.w3.org/1999/xlink" version="1.1" x="0px" y="0px" viewBox="0 0 38 37.5" xml:space="preserve"><g transform="translate(-552 -80)"><g xmlns="http://www.w3.org/2000/svg" xmlns:xlink="http://www.w3.org/1999/xlink"><path d="M586,95l1-2l-3-4l-2-6l-3-1v2l-1-1h-12l-1-2h-12v1l1,2h6l4,2v1h2l2-1h3l4,4h1v3l-1,3l1,1v1l2,3h1v2h1l1,2l2,1l2,3h2l1-1    v-1l1-3v-4L586,95z"/></g></g><text x="0" y="45" fill="#000000" font-size="5px" font-weight="bold" font-family="'Helvetica Neue', Helvetica, Arial-Unicode, Arial, Sans-serif">Created by Hea Poh Lin</text><text x="0" y="50" fill="#000000" font-size="5px" font-weight="bold" font-family="'Helvetica Neue', Helvetica, Arial-Unicode, Arial, Sans-serif">from the Noun Project</text></svg>