<svg xmlns="http://www.w3.org/2000/svg" xmlns:xlink="http://www.w3.org/1999/xlink" version="1.1" x="0px" y="0px" viewBox="0 0 30 37.5" xml:space="preserve"><g transform="translate(-512 -740)"><g xmlns="http://www.w3.org/2000/svg" xmlns:xlink="http://www.w3.org/1999/xlink"><polygon points="523,770 519,770 520,768 524,768   "/><rect x="521" y="745" width="1" height="1"/><rect x="520" y="744" width="1" height="1"/><rect x="521" y="747" width="1" height="1"/><rect x="519" y="763" width="1" height="1"/><rect x="531" y="760" width="1" height="1"/><rect x="525" y="762" width="1" height="1"/><rect x="523" y="763" width="1" height="1"/><g><path d="M534,754v-6l-3-5v-1l-2-2v2h-5l-2,2l1,5h-3l-1,1h1l1,6l-1,1v5l1,2l2-1l1-1l3-1v1h1v-1h2l1-2h2l1-1l1-4H534z"/></g><rect x="540" y="745" width="1" height="1"/></g></g><text x="0" y="45" fill="#000000" font-size="5px" font-weight="bold" font-family="'Helvetica Neue', Helvetica, Arial-Unicode, Arial, Sans-serif">Created by Hea Poh Lin</text><text x="0" y="50" fill="#000000" font-size="5px" font-weight="bold" font-family="'Helvetica Neue', Helvetica, Arial-Unicode, Arial, Sans-serif">from the Noun Project</text></svg>