<svg xmlns="http://www.w3.org/2000/svg" xmlns:xlink="http://www.w3.org/1999/xlink" version="1.1" x="0px" y="0px" viewBox="0 0 38 37.5" xml:space="preserve"><g transform="translate(-296 -380)"><g xmlns="http://www.w3.org/2000/svg" xmlns:xlink="http://www.w3.org/1999/xlink"><path d="M329,388h-1l-1,1h-3l-2,1l-1,2h-1v-4h-7v-8h-1v4l-1,4l-3,3h-3v3h-3v3l-1,1v1h-2v3l6,7h2l8-3v-1l4-6v-1h1l1,1l1-1v-2h2l3-3    l1-3h1l1.5,2.5l1.5-1.5v-2L329,388z"/></g></g><text x="0" y="45" fill="#000000" font-size="5px" font-weight="bold" font-family="'Helvetica Neue', Helvetica, Arial-Unicode, Arial, Sans-serif">Created by Hea Poh Lin</text><text x="0" y="50" fill="#000000" font-size="5px" font-weight="bold" font-family="'Helvetica Neue', Helvetica, Arial-Unicode, Arial, Sans-serif">from the Noun Project</text></svg>