<svg width="32" height="32" viewBox="0 0 32 32" xmlns="http://www.w3.org/2000/svg"><title>Rectangle 68 Copy + twitter-icon copy 2</title><g fill="none" fill-rule="evenodd"><rect fill="#6C89C5" x=".812" y=".512" width="30.696" height="30.708" rx="3"/><path d="M23.127 11.83c.703-.415 1.243-1.074 1.498-1.86-.658.386-1.387.665-2.163.816-.62-.653-1.506-1.062-2.485-1.062-2.198 0-3.814 2.026-3.317 4.13-2.83-.14-5.34-1.48-7.018-3.514-.892 1.51-.463 3.49 1.053 4.49-.558-.017-1.083-.168-1.542-.42-.037 1.56 1.094 3.016 2.73 3.34-.478.13-1.003.16-1.536.06.433 1.335 1.69 2.307 3.18 2.335-1.43 1.108-3.234 1.603-5.04 1.393 1.506.954 3.296 1.51 5.22 1.51 6.32 0 9.892-5.274 9.677-10.005.665-.475 1.243-1.067 1.7-1.742-.612.27-1.268.45-1.957.53z" fill="#FFF"/></g></svg>