<svg width="32" height="32" viewBox="0 0 32 32" xmlns="http://www.w3.org/2000/svg"><title>Rectangle 68 Copy 2 + facebook-icon copy 2</title><g fill="none" fill-rule="evenodd"><path d="M31.208 29.686c0 .847-.684 1.534-1.533 1.534H2.045c-.847 0-1.533-.685-1.533-1.534V2.046c0-.848.684-1.534 1.532-1.534h27.63c.848 0 1.534.684 1.534 1.533v27.64z" fill="#6C89C5"/><path d="M13.46 13.964h-1.693v2.485h1.694v7.298h3.26v-7.33h2.273l.242-2.454H16.72v-1.397c0-.58.13-.808.752-.808h1.763V9.21H16.98c-2.425 0-3.52.96-3.52 2.796v1.956z" fill="#FFF"/></g></svg>