<svg width="27" height="26" viewBox="0 0 27 26" xmlns="http://www.w3.org/2000/svg"><title>Shape Copy + Shape Copy 2</title><g fill="#FFF" fill-rule="evenodd"><path d="M27 1.875C27 .84 26.137 0 25.07 0c-.52 0-.99.2-1.337.526l-10.238 9.951L3.392.654C3.038.254 2.515 0 1.93 0 .862 0 0 .84 0 1.875c0 .503.204.96.537 1.297l-.005.005 11.57 11.25h.002c.35.353.843.573 1.388.573H13.5c.546 0 1.037-.22 1.39-.574l11.57-11.25c.334-.337.54-.795.54-1.3z"/><path d="M0 24.125C0 25.16.863 26 1.93 26c.52 0 .99-.2 1.337-.526l10.238-9.951 10.104 9.823c.353.4.876.654 1.46.654 1.067 0 1.93-.84 1.93-1.875 0-.503-.204-.96-.537-1.297l.005-.005-11.57-11.25h-.002c-.35-.353-.843-.573-1.388-.573H13.5c-.546 0-1.037.22-1.39.574L.54 22.823c-.334.337-.54.795-.54 1.3z"/></g></svg>