<svg width="27" height="27" viewBox="0 0 27 27" xmlns="http://www.w3.org/2000/svg"><title>Rectangle 68 Copy 4 + Shape</title><g fill="none" fill-rule="evenodd"><path fill="#6C89C5" d="M0 0h27v27H0z"/><path d="M17.782 9.64l-1.287 1.287c.663.657 1.074 1.567 1.074 2.573s-.412 1.916-1.075 2.572l1.287 1.287c.987-.99 1.598-2.353 1.598-3.86 0-1.507-.61-2.87-1.598-3.86zm2.554-2.553L19.063 8.36c1.314 1.317 2.126 3.133 2.126 5.14 0 2.006-.813 3.823-2.127 5.14l1.273 1.273C21.98 18.273 23 16.006 23 13.5c0-2.506-1.02-4.774-2.664-6.413zM4 9.077v9.39h4.854l5.192 3.452V5.08L8.952 9.08H4z" fill="#FFF"/></g></svg>