<svg width="45" height="34" viewBox="0 0 45 34" xmlns="http://www.w3.org/2000/svg"><title>Fill 1</title><path d="M40.313 0H4.687C2.104 0 0 2.12 0 4.722v24.556C0 31.88 2.104 34 4.688 34h35.624C42.897 34 45 31.88 45 29.278V4.722C45 2.12 42.896 0 40.312 0zm-8.438 24.556h-18.75c-4.136 0-7.5-3.39-7.5-7.556 0-4.167 3.364-7.556 7.5-7.556s7.5 3.39 7.5 7.556c0 2.267-1.016 4.28-2.59 5.667h8.933c-1.575-1.387-2.59-3.4-2.59-5.667 0-4.167 3.363-7.556 7.5-7.556 4.135 0 7.5 3.39 7.5 7.556 0 4.167-3.367 7.556-7.503 7.556zM18.75 17c0 3.13-2.52 5.667-5.625 5.667C10.02 22.667 7.5 20.13 7.5 17c0-3.13 2.52-5.667 5.625-5.667 3.106 0 5.625 2.538 5.625 5.667zm18.75 0c0 3.13-2.52 5.667-5.625 5.667-3.106 0-5.625-2.538-5.625-5.667 0-3.13 2.52-5.667 5.625-5.667 3.106 0 5.625 2.538 5.625 5.667z" fill="#6C89C5" fill-rule="evenodd"/></svg>