<svg width="14" height="19" viewBox="0 0 14 19" xmlns="http://www.w3.org/2000/svg"><title>Shape</title><path d="M13.908 5.185c-.044-.108-.098-.212-.17-.3L9.663.344C9.572.243 9.46.17 9.338.106 9.198.03 9.042 0 8.876 0H1.103C.5 0 0 .524 0 1.183v16.585C0 18.43.5 19 1.103 19H12.92c.604 0 1.08-.57 1.08-1.232V5.69c0-.178-.024-.35-.092-.505zM2.333 5.65c0-.074.088-.103.166-.103h3.44c.078 0 .136.03.136.104v.535c0 .07-.053.153-.136.153H2.5c-.08 0-.167-.084-.167-.153V5.65zm0 6.334c0-.074.088-.104.166-.104h5.94c.077 0 .116.03.116.104v.534c0 .07-.034.154-.117.154H2.5c-.08 0-.167-.085-.167-.154v-.534zm7.778 3.7c0 .07-.033.154-.116.154H2.5c-.08 0-.167-.084-.167-.153v-.534c0-.074.088-.103.166-.103h7.494c.078 0 .117.03.117.104v.535zm1.557-6.332c0 .07-.034.153-.117.153H2.5c-.08 0-.167-.084-.167-.153v-.535c0-.074.088-.104.166-.104h9.05c.078 0 .117.03.117.104v.535zm-2.28-3.756c-.272 0-.54-.257-.54-.56V1.772l3.46 3.826h-2.92z" fill="#81ADFF" fill-rule="evenodd"/></svg>