<svg width="33" height="27" viewBox="0 0 33 27" xmlns="http://www.w3.org/2000/svg"><title>twitter-icon copy</title><path d="M28.618 4.117c1.374-.814 2.43-2.102 2.926-3.636-1.286.754-2.71 1.3-4.226 1.595C26.104.798 24.374 0 22.46 0c-4.296 0-7.454 3.96-6.483 8.07-5.532-.274-10.436-2.89-13.72-6.867-1.742 2.954-.903 6.82 2.06 8.775-1.09-.034-2.116-.33-3.013-.822C1.23 12.2 3.44 15.05 6.642 15.684c-.937.25-1.963.31-3.006.112.847 2.61 3.305 4.512 6.218 4.565-2.8 2.166-6.323 3.133-9.854 2.722 2.945 1.865 6.444 2.953 10.202 2.953 12.357 0 19.338-10.307 18.918-19.55 1.3-.927 2.428-2.085 3.32-3.403-1.193.523-2.476.876-3.822 1.035z" fill="#7D90AC" fill-rule="evenodd"/></svg>