<svg width="118" height="119" viewBox="0 0 118 119" xmlns="http://www.w3.org/2000/svg"><title>”</title><path d="M.045 39.767C.045 14.26 15.12.207 32.275.207 47.873.207 60.35 13.22 60.35 28.315c0 15.096-10.918 26.547-25.474 26.547-2.08 0-6.24-.52-6.76-1.04 2.08 16.656 16.637 37.478 33.273 48.41l-19.236 16.135C18.24 101.19.044 71.52.044 39.767zM104.278.207c15.595 0 27.552 13.013 27.552 28.108 0 15.096-10.917 26.547-24.953 26.547-2.6 0-6.24-.52-7.278-1.04 2.078 16.656 17.154 37.478 33.79 48.41l-19.755 16.135c-23.914-17.177-42.11-46.848-42.11-78.6 0-25.506 15.077-39.56 32.753-39.56z" fill="#D5E1F3" fill-rule="evenodd"/></svg>