<svg width="14" height="19" viewBox="0 0 14 19" xmlns="http://www.w3.org/2000/svg"><title>Shape Copy 10</title><path d="M13.738 4.884L9.664.346C9.572.242 9.46.168 9.338.104 9.198.03 9.042 0 8.876 0H1.103C.5 0 0 .524 0 1.183v16.585C0 18.43.5 19 1.103 19H12.92c.604 0 1.08-.57 1.08-1.232V5.69c0-.178-.024-.35-.092-.505-.044-.108-.098-.212-.17-.3zm-4.35.712c-.273 0-.54-.257-.54-.56V1.772l3.46 3.826h-2.92zM4.04 17.186H2.165V9H4.04v8.185zm2.786 0H4.95v-7h1.876v7zm2.587.044H7.536v-9h1.877v9zM12 17.185h-1.877v-5.223H12v5.223z" fill="#6C89C5" fill-rule="evenodd"/></svg>