<svg width="139" height="20" viewBox="0 0 139 20" xmlns="http://www.w3.org/2000/svg"><title>Donut + KPCC + 89.3</title><g fill="none" fill-rule="evenodd"><path d="M0 10C0 4.484 4.49 0 10.007 0c5.52 0 10.007 4.485 10.007 10s-4.488 10-10.007 10C4.49 20 0 15.515 0 10zM10.143 5.34c-2.644 0-4.797 2.152-4.797 4.794 0 2.646 2.153 4.796 4.797 4.796 2.648 0 4.8-2.15 4.8-4.796 0-2.642-2.152-4.794-4.8-4.794z" fill="#F87E21"/><path d="M65.442 19.59h5.32v-4.96l1.946-2.164 4.825 7.123h6.388L76.41 8.657 83.673.41h-6.306L70.76 8.193V.412h-5.318v19.177zm19.466 0h5.32v-5.48h2.63c4.77 0 8.253-2.384 8.253-6.905 0-4.3-3.125-6.794-7.977-6.794h-8.225v19.18zm5.346-9.645V4.877h2.606c2.004 0 3.206.876 3.206 2.52v.055c0 1.507-1.202 2.493-3.178 2.493h-2.634zm21.796 10.028c4.25 0 6.69-1.836 8.5-4.33l-4.004-2.848c-1.15 1.397-2.33 2.328-4.332 2.328-2.686 0-4.578-2.246-4.578-5.123v-.055c0-2.794 1.892-5.068 4.578-5.068 1.837 0 3.098.876 4.195 2.246l4.002-3.096c-1.7-2.356-4.222-4-8.143-4-5.813 0-10.117 4.384-10.117 9.973v.055c0 5.726 4.414 9.918 9.897 9.918zm18.37 0c4.248 0 6.688-1.836 8.498-4.33l-4.003-2.848c-1.15 1.397-2.33 2.328-4.332 2.328-2.687 0-4.578-2.246-4.578-5.123v-.055c0-2.794 1.89-5.068 4.578-5.068 1.837 0 3.098.876 4.195 2.246l4.003-3.096c-1.7-2.356-4.22-4-8.142-4-5.812 0-10.117 4.384-10.117 9.973v.055c0 5.726 4.416 9.918 9.9 9.918z" fill="#000"/><path d="M35.043 14.128c0-1.962-.89-3.767-3.456-4.605 2.2-.81 2.906-2.59 2.906-4.08 0-2.853-2.33-4.71-5.158-4.71-2.854 0-5.158 1.857-5.158 4.71 0 1.516.785 3.348 2.854 4.08-2.513.838-3.403 2.67-3.403 4.605 0 3.22 2.46 5.233 5.708 5.233 3.194 0 5.708-2.013 5.708-5.232zm-1.702-8.66c0 2.38-1.78 3.637-4.005 3.637-2.226 0-4.032-1.256-4.032-3.637 0-2.224 1.937-3.69 4.032-3.69 2.094 0 4.006 1.466 4.006 3.69zm.524 8.66c0 2.512-2.12 4.134-4.53 4.134-2.434 0-4.53-1.622-4.53-4.134 0-2.695 1.99-4.08 4.53-4.08 2.514 0 4.53 1.412 4.53 4.08zm13.624-7.09c0-3.428-2.042-6.306-5.682-6.306-3.168 0-5.577 2.512-5.577 5.6 0 3.113 2.33 5.52 5.524 5.52 1.414 0 3.194-.42 4.45-2.643-.863 4.76-3.665 7.744-6.57 9.968h1.465c4.11-2.956 6.388-7.718 6.388-12.14zm-1.23-.76c0 2.487-1.86 4.5-4.478 4.5-2.513 0-4.45-2.092-4.45-4.473 0-2.38 1.91-4.5 4.45-4.5 2.487 0 4.477 2.067 4.477 4.474zm.836 10.912c-.576 0-1.073.47-1.073 1.072 0 .602.498 1.073 1.074 1.073.63 0 1.1-.47 1.1-1.073 0-.6-.47-1.072-1.1-1.072zm14-3.035c0-2.277-1.282-3.847-3.403-4.527 1.887-.654 2.934-2.093 2.934-4.134 0-2.904-2.383-4.788-5.21-4.788-2.174 0-4.06 1.073-4.975 3.06l1.02.42c.68-1.518 2.225-2.433 3.9-2.433 2.096 0 4.138 1.57 4.138 3.74 0 2.565-1.833 3.638-4.163 3.716v.863c2.566.078 4.608 1.282 4.608 4.082 0 2.51-2.016 4.107-4.425 4.107-1.833 0-3.482-.863-4.19-2.59l-1.046.393c.89 2.302 2.854 3.296 5.236 3.296 3.116 0 5.577-1.96 5.577-5.205z" stroke="#000" stroke-width=".548" fill="#000"/></g></svg>