<?xml version="1.0" encoding="UTF-8" standalone="no"?>
<svg width="27px" height="27px" viewBox="0 0 27 27" version="1.1" xmlns="http://www.w3.org/2000/svg" xmlns:xlink="http://www.w3.org/1999/xlink" xmlns:sketch="http://www.bohemiancoding.com/sketch/ns">
    <!-- Generator: Sketch 3.4 (15575) - http://www.bohemiancoding.com/sketch -->
    <title>Rectangle 68 Copy 4 + Shape</title>
    <desc>Created with Sketch.</desc>
    <defs></defs>
    <g id="Text-Articles" stroke="none" stroke-width="1" fill="none" fill-rule="evenodd" sketch:type="MSPage">
        <g id="AUDIO---Unarmed-and-Dangerous" sketch:type="MSArtboardGroup" transform="translate(-1198.000000, -20.000000)">
            <g id="Group" sketch:type="MSLayerGroup" transform="translate(1165.000000, 15.000000)">
                <g id="Rectangle-68-Copy-4-+-Shape" transform="translate(33.000000, 5.000000)" sketch:type="MSShapeGroup">
                    <rect id="Rectangle-68-Copy-4" fill="#6C89C5" x="0" y="0" width="27" height="27"></rect>
                    <path d="M17.782139,9.64078079 L16.4951099,10.9274895 C17.1578727,11.5840015 17.5685218,12.4940484 17.5685218,13.5001604 C17.5685218,14.5059174 17.1578727,15.4163192 16.4951099,16.0721565 L17.782139,17.3588289 C18.7688248,16.3707585 19.3795949,15.0067357 19.3795949,13.5001604 C19.3795949,11.9932293 18.7688248,10.6295623 17.782139,9.64078079 Z M20.3360927,7.08682577 L19.0625957,8.36103304 C20.3766861,9.67650806 21.1892818,11.4934757 21.1892818,13.5001604 C21.1892818,15.5064893 20.3766861,17.3234574 19.0625957,18.6392873 L20.3360927,19.9134941 C21.9813867,18.2744517 23,16.0062428 23,13.5001604 C23,10.9940779 21.9813867,8.72586857 20.3360927,7.08682577 Z M4,9.07768493 L4,18.4684895 L8.85370115,18.4684895 L14.045977,21.9191482 L14.045977,5.08085179 L8.95150647,9.07768493 L4,9.07768493 Z" id="Shape" fill="#FFFFFF"></path>
                </g>
            </g>
        </g>
    </g>
</svg>