<?xml version="1.0" encoding="UTF-8" standalone="no"?>
<svg width="27px" height="15px" viewBox="0 0 27 15" version="1.1" xmlns="http://www.w3.org/2000/svg" xmlns:xlink="http://www.w3.org/1999/xlink" xmlns:sketch="http://www.bohemiancoding.com/sketch/ns">
    <!-- Generator: Sketch 3.3.3 (12072) - http://www.bohemiancoding.com/sketch -->
    <title>Shape</title>
    <desc>Created with Sketch.</desc>
    <defs></defs>
    <g id="Sequential-Visual-Story" stroke="none" stroke-width="1" fill="none" fill-rule="evenodd" sketch:type="MSPage">
        <g id="Slide---Email-Appeal" sketch:type="MSArtboardGroup" transform="translate(-712.000000, -64.000000)" fill="#FFFFFF">
            <g id="Header-and-Navigation" sketch:type="MSLayerGroup" transform="translate(32.000000, 17.000000)">
                <g id="Up-Arrow" transform="translate(694.000000, 55.000000) rotate(-180.000000) translate(-694.000000, -55.000000) translate(664.000000, 25.000000)" sketch:type="MSShapeGroup">
                    <path d="M44,24.875 C44,23.839375 43.1366429,23 42.0714286,23 C41.5513571,23 41.0801429,23.200625 40.733,23.525625 L40.7323571,23.525 L30.4955,33.4775 L20.3910714,23.65375 C20.0375,23.25375 19.5135714,23 18.9285714,23 C17.8633571,23 17,23.839375 17,24.875 C17,25.378125 17.2044286,25.835 17.5367857,26.171875 L17.5316429,26.176875 L29.1030714,37.426875 L29.1037143,37.42625 C29.4547143,37.78 29.9465,38 30.4916429,38 L30.4961429,38 L30.5006429,38 C31.0464286,38 31.5369286,37.78 31.8885714,37.42625 L31.8892143,37.426875 L43.4606429,26.176875 L43.46,26.17625 C43.7942857,25.839375 44,25.380625 44,24.875 L44,24.875 Z" id="Shape"></path>
                </g>
            </g>
        </g>
    </g>
</svg>