<?xml version="1.0" encoding="UTF-8" standalone="no"?>
<svg width="27px" height="26px" viewBox="0 0 27 26" version="1.1" xmlns="http://www.w3.org/2000/svg" xmlns:xlink="http://www.w3.org/1999/xlink" xmlns:sketch="http://www.bohemiancoding.com/sketch/ns">
    <!-- Generator: Sketch 3.3.3 (12072) - http://www.bohemiancoding.com/sketch -->
    <title>Shape Copy + Shape Copy 2</title>
    <desc>Created with Sketch.</desc>
    <defs></defs>
    <g id="Sequential-Visual-Story" stroke="none" stroke-width="1" fill="none" fill-rule="evenodd" sketch:type="MSPage">
        <g id="Slide---Email-Appeal" sketch:type="MSArtboardGroup" transform="translate(-1025.000000, -345.000000)" fill="#FFFFFF">
            <g id="Shape-Copy-+-Shape-Copy-2" sketch:type="MSLayerGroup" transform="translate(1025.000000, 345.000000)">
                <path d="M27,1.875 C27,0.839375 26.1366429,0 25.0714286,0 C24.5513571,0 24.0801429,0.200625 23.733,0.525625 L23.7323571,0.525 L13.4955,10.4775 L3.39107143,0.65375 C3.0375,0.25375 2.51357143,0 1.92857143,0 C0.863357143,0 0,0.839375 0,1.875 C0,2.378125 0.204428571,2.835 0.536785714,3.171875 L0.531642857,3.176875 L12.1030714,14.426875 L12.1037143,14.42625 C12.4547143,14.78 12.9465,15 13.4916429,15 L13.4961429,15 L13.5006429,15 C14.0464286,15 14.5369286,14.78 14.8885714,14.42625 L14.8892143,14.426875 L26.4606429,3.176875 L26.46,3.17625 C26.7942857,2.839375 27,2.380625 27,1.875 L27,1.875 Z" id="Shape-Copy" sketch:type="MSShapeGroup"></path>
                <path d="M27,12.875 C27,11.839375 26.1366429,11 25.0714286,11 C24.5513571,11 24.0801429,11.200625 23.733,11.525625 L23.7323571,11.525 L13.4955,21.4775 L3.39107143,11.65375 C3.0375,11.25375 2.51357143,11 1.92857143,11 C0.863357143,11 0,11.839375 0,12.875 C0,13.378125 0.204428571,13.835 0.536785714,14.171875 L0.531642857,14.176875 L12.1030714,25.426875 L12.1037143,25.42625 C12.4547143,25.78 12.9465,26 13.4916429,26 L13.4961429,26 L13.5006429,26 C14.0464286,26 14.5369286,25.78 14.8885714,25.42625 L14.8892143,25.426875 L26.4606429,14.176875 L26.46,14.17625 C26.7942857,13.839375 27,13.380625 27,12.875 L27,12.875 Z" id="Shape-Copy-2" sketch:type="MSShapeGroup" transform="translate(13.500000, 18.500000) rotate(-180.000000) translate(-13.500000, -18.500000) "></path>
            </g>
        </g>
    </g>
</svg>