<?xml version="1.0" encoding="UTF-8" standalone="no"?>
<svg width="14px" height="19px" viewBox="0 0 14 19" version="1.1" xmlns="http://www.w3.org/2000/svg" xmlns:xlink="http://www.w3.org/1999/xlink" xmlns:sketch="http://www.bohemiancoding.com/sketch/ns">
    <!-- Generator: Sketch 3.4 (15575) - http://www.bohemiancoding.com/sketch -->
    <title>Shape Copy 10</title>
    <desc>Created with Sketch.</desc>
    <defs></defs>
    <g id="Text-Articles" stroke="none" stroke-width="1" fill="none" fill-rule="evenodd" sketch:type="MSPage">
        <g id="ARTICLE---Unarmed-and-Dangerous" sketch:type="MSArtboardGroup" transform="translate(-871.000000, -3778.000000)" fill="#6C89C5">
            <g id="Shape-Copy-10-+-Explore-the-data-Copy" sketch:type="MSLayerGroup" transform="translate(871.000000, 3778.000000)">
                <path d="M13.7375,4.88359375 L9.66388889,0.346354167 C9.57152778,0.242447917 9.45972222,0.168229167 9.33819444,0.10390625 C9.19722222,0.0296875 9.04166667,0 8.87638889,0 L1.10347222,0 C0.500694444,0 0,0.524479167 0,1.18255208 L0,17.7679688 C0,18.4309896 0.500694444,19 1.10347222,19 L12.9208333,19 C13.5236111,19 14,18.4309896 14,17.7679688 L14,5.69010417 C14,5.51197917 13.9756944,5.33880208 13.9076389,5.18541667 C13.8638889,5.0765625 13.8104167,4.97265625 13.7375,4.88359375 Z M9.38680556,5.59609375 C9.11458333,5.59609375 8.84722222,5.33880208 8.84722222,5.03697917 L8.84722222,1.77135417 L12.3083333,5.59609375 L9.38680556,5.59609375 Z M4.040625,17.1850586 L2.16360539,17.1850586 L2.16360539,9 L4.040625,9 L4.040625,17.1850586 Z M6.82640625,17.1850586 L4.94938664,17.1850586 L4.94938664,10.1850586 L6.82640625,10.1850586 L6.82640625,17.1850586 Z M9.41320312,17.2299805 L7.5363825,17.2299805 L7.5363825,8.22998047 L9.41320312,8.22998047 L9.41320312,17.2299805 Z M12,17.1850586 L10.1231794,17.1850586 L10.1231794,11.9617187 L12,11.9617187 L12,17.1850586 Z" id="Shape-Copy-10" sketch:type="MSShapeGroup"></path>
            </g>
        </g>
    </g>
</svg>