<?xml version="1.0" encoding="UTF-8" standalone="no"?>
<svg width="118px" height="119px" viewBox="0 0 118 119" version="1.1" xmlns="http://www.w3.org/2000/svg" xmlns:xlink="http://www.w3.org/1999/xlink" xmlns:sketch="http://www.bohemiancoding.com/sketch/ns">
    <!-- Generator: Sketch 3.4 (15575) - http://www.bohemiancoding.com/sketch -->
    <title>”</title>
    <desc>Created with Sketch.</desc>
    <defs></defs>
    <g id="Text-Articles" stroke="none" stroke-width="1" fill="none" fill-rule="evenodd" sketch:type="MSPage">
        <g id="ARTICLE---Unarmed-and-Dangerous" sketch:type="MSArtboardGroup" transform="translate(-212.000000, -13952.000000)" fill="#BBCACB">
            <g id="Group" sketch:type="MSLayerGroup" transform="translate(208.000000, 6752.000000)">
                <g id="You-have-to-do-what--Copy-+-Line-Copy-2-+-”-copy-Copy-+-Group-Copy" transform="translate(0.000000, 7176.000000)" sketch:type="MSShapeGroup">
                    <g id="You-have-to-do-what--Copy-+-Line-Copy-2-+-”-copy-Copy">
                        <g>
                            <g id="Line-Copy-2-+-”-copy-Copy">
                                <g id="”-copy" transform="translate(0.500000, 13.535943)">
                                    <path d="M136.889898,50.2311258 C136.889898,24.7251656 121.813848,10.6708609 104.658343,10.6708609 C89.0624291,10.6708609 76.5856981,23.684106 76.5856981,38.7794702 C76.5856981,53.8748344 87.5028377,65.3264901 102.059024,65.3264901 C104.138479,65.3264901 108.297389,64.8059603 108.817253,64.2854305 C106.737798,80.9423841 92.1816118,101.763576 75.5459705,112.694702 L94.7809308,128.831126 C118.694665,111.653642 136.889898,81.9834437 136.889898,50.2311258 L136.889898,50.2311258 Z M32.6572077,10.6708609 C17.061294,10.6708609 5.10442679,23.684106 5.10442679,38.7794702 C5.10442679,53.8748344 16.0215664,65.3264901 30.0578888,65.3264901 C32.6572077,65.3264901 36.2962543,64.8059603 37.3359818,64.2854305 C35.2565267,80.9423841 20.1804767,101.763576 3.54483541,112.694702 L23.2996595,128.831126 C47.2133939,111.653642 65.4086266,81.9834437 65.4086266,50.2311258 C65.4086266,24.7251656 50.3325766,10.6708609 32.6572077,10.6708609 Z" id="”" transform="translate(70.217367, 69.750993) scale(-1, 1) translate(-70.217367, -69.750993) "></path>
                                </g>
                            </g>
                        </g>
                    </g>
                </g>
            </g>
        </g>
    </g>
</svg>