<?xml version="1.0" encoding="UTF-8" standalone="no"?>
<svg width="10px" height="6px" viewBox="0 0 10 6" version="1.1" xmlns="http://www.w3.org/2000/svg" xmlns:xlink="http://www.w3.org/1999/xlink" xmlns:sketch="http://www.bohemiancoding.com/sketch/ns">
    <!-- Generator: Sketch 3.4 (15575) - http://www.bohemiancoding.com/sketch -->
    <title>Shape Copy</title>
    <desc>Created with Sketch.</desc>
    <defs></defs>
    <g id="Sequential-Visual-Story" stroke="none" stroke-width="1" fill="#388B90" fill-rule="evenodd" sketch:type="MSPage">
        <g id="Slide---Fatality-Profile-2" sketch:type="MSArtboardGroup" transform="translate(-308.000000, -27.000000)" fill="#388B90" opacity="0.645930504">
            <g id="Header-and-Navigation" sketch:type="MSLayerGroup" transform="translate(32.000000, 17.000000)">
                <g id="Header" sketch:type="MSShapeGroup">
                    <g id="Donut-+-KPCC-+-89.3-+-Series-Title-Goes-He-+-Line">
                        <path d="M286,10.75 C286,10.33575 285.680238,10 285.285714,10 C285.093095,10 284.918571,10.08025 284.79,10.21025 L284.789762,10.21 L280.998333,14.191 L277.255952,10.2615 C277.125,10.1015 276.930952,10 276.714286,10 C276.319762,10 276,10.33575 276,10.75 C276,10.95125 276.075714,11.134 276.19881,11.26875 L276.196905,11.27075 L280.482619,15.77075 L280.482857,15.7705 C280.612857,15.912 280.795,16 280.996905,16 L280.998571,16 L281.000238,16 C281.202381,16 281.384048,15.912 281.514286,15.7705 L281.514524,15.77075 L285.800238,11.27075 L285.8,11.2705 C285.92381,11.13575 286,10.95225 286,10.75 L286,10.75 Z" id="Shape-Copy"></path>
                    </g>
                </g>
            </g>
        </g>
    </g>
</svg>