<?xml version="1.0" encoding="UTF-8" standalone="no"?>
<svg width="45px" height="34px" viewBox="0 0 45 34" version="1.1" xmlns="http://www.w3.org/2000/svg" xmlns:xlink="http://www.w3.org/1999/xlink" xmlns:sketch="http://www.bohemiancoding.com/sketch/ns">
    <!-- Generator: Sketch 3.4 (15575) - http://www.bohemiancoding.com/sketch -->
    <title>Fill 1</title>
    <desc>Created with Sketch.</desc>
    <defs></defs>
    <g id="Text-Articles" stroke="none" stroke-width="1" fill="none" fill-rule="evenodd" sketch:type="MSPage">
        <g id="ARTICLE---Secrecy" sketch:type="MSArtboardGroup" transform="translate(-810.000000, -8287.000000)" fill="#6C89C5">
            <g id="Voicemail-Appeal" sketch:type="MSLayerGroup" transform="translate(810.000000, 8254.000000)">
                <g id="Fill-1" transform="translate(0.000000, 33.000000)" sketch:type="MSShapeGroup">
                    <path d="M40.3125,0 L4.6875,0 C2.10375,0 0,2.11933333 0,4.72222222 L0,29.2777778 C0,31.8806667 2.10375,34 4.6875,34 L40.3125,34 C42.89625,34 45,31.8806667 45,29.2777778 L45,4.72222222 C45,2.11933333 42.89625,0 40.3125,0 L40.3125,0 L40.3125,0 L40.3125,0 Z M31.875,24.5555556 L13.125,24.5555556 C8.98875,24.5555556 5.625,21.1668889 5.625,17 C5.625,12.8331111 8.98875,9.44444444 13.125,9.44444444 C17.26125,9.44444444 20.625,12.8331111 20.625,17 C20.625,19.2666667 19.60875,21.2802222 18.03375,22.6666667 L26.968125,22.6666667 C25.393125,21.2802222 24.37875,19.2666667 24.37875,17 C24.37875,12.8331111 27.740625,9.44444444 31.87875,9.44444444 C36.013125,9.44444444 39.37875,12.8331111 39.37875,17 C39.37875,21.1668889 36.01125,24.5555556 31.875,24.5555556 L31.875,24.5555556 Z M18.75,17 C18.75,20.1294167 16.2314063,22.6666667 13.125,22.6666667 C10.0185937,22.6666667 7.5,20.1294167 7.5,17 C7.5,13.8705833 10.0185937,11.3333333 13.125,11.3333333 C16.2314063,11.3333333 18.75,13.8705833 18.75,17 L18.75,17 Z M37.5,17 C37.5,20.1294167 34.9814063,22.6666667 31.875,22.6666667 C28.7685937,22.6666667 26.25,20.1294167 26.25,17 C26.25,13.8705833 28.7685937,11.3333333 31.875,11.3333333 C34.9814063,11.3333333 37.5,13.8705833 37.5,17 L37.5,17 Z"></path>
                </g>
            </g>
        </g>
    </g>
</svg>