<?xml version="1.0" encoding="UTF-8" standalone="no"?>
<svg width="33px" height="27px" viewBox="0 0 33 27" version="1.1" xmlns="http://www.w3.org/2000/svg" xmlns:xlink="http://www.w3.org/1999/xlink" xmlns:sketch="http://www.bohemiancoding.com/sketch/ns">
    <!-- Generator: Sketch 3.3.3 (12072) - http://www.bohemiancoding.com/sketch -->
    <title>twitter-icon copy</title>
    <desc>Created with Sketch.</desc>
    <defs></defs>
    <g id="Sequential-Visual-Story" stroke="none" stroke-width="1" fill="none" fill-rule="evenodd" sketch:type="MSPage">
        <g id="Slide---Mentally-Ill-Profile-2" sketch:type="MSArtboardGroup" transform="translate(-1368.000000, -942.000000)" fill="#388B90">
            <g id="Social" sketch:type="MSLayerGroup" transform="translate(1178.000000, 923.000000)">
                <path d="M218.618133,23.1168368 C219.99206,22.303407 221.047564,21.0154181 221.544411,19.4805465 C220.258357,20.2337914 218.834037,20.7807434 217.317986,21.0754475 C216.103979,19.7980337 214.374228,19 212.459912,19 C208.163881,19 205.005794,22.9591429 205.976731,27.0703034 C200.445277,26.796283 195.541061,24.1794821 192.258487,20.2031546 C190.515036,23.1566491 191.354163,27.02186 194.318157,28.9781817 C193.227299,28.9441235 192.200771,28.6484086 191.303612,28.1559651 C191.231408,31.2011367 193.441077,34.0485688 196.641762,34.6836989 C195.705076,34.9354026 194.679099,34.9930215 193.636272,34.7962152 C194.483037,37.4073397 196.941129,39.3075977 199.853549,39.3605511 C197.055381,41.5260428 193.531155,42.4932786 190,42.0823258 C192.945332,43.947126 196.44381,45.0353538 200.202365,45.0353538 C212.559123,45.0353538 219.54041,34.7284099 219.119626,25.4841891 C220.420167,24.5575431 221.548427,23.3999549 222.440703,22.0818735 C221.247169,22.6047205 219.964423,22.9581321 218.618133,23.1168368 Z" id="twitter-icon-copy" sketch:type="MSShapeGroup"></path>
            </g>
        </g>
    </g>
</svg>