<?xml version="1.0" encoding="UTF-8" standalone="no"?>
<svg width="14px" height="19px" viewBox="0 0 14 19" version="1.1" xmlns="http://www.w3.org/2000/svg" xmlns:xlink="http://www.w3.org/1999/xlink" xmlns:sketch="http://www.bohemiancoding.com/sketch/ns">
    <!-- Generator: Sketch 3.3.3 (12072) - http://www.bohemiancoding.com/sketch -->
    <title>Shape</title>
    <desc>Created with Sketch.</desc>
    <defs></defs>
    <g id="Sequential-Visual-Story" stroke="none" stroke-width="1" fill="none" fill-rule="evenodd" sketch:type="MSPage">
        <g id="Slide---Fatality-Profile-2" sketch:type="MSArtboardGroup" transform="translate(-530.000000, -620.000000)" fill="#81ADFF">
            <path d="M543.907639,625.185417 C543.863889,625.076563 543.810417,624.972656 543.7375,624.883594 L539.663889,620.346354 C539.571528,620.242448 539.459722,620.168229 539.338194,620.103906 C539.197222,620.029688 539.041667,620 538.876389,620 L531.103472,620 C530.500694,620 530,620.524479 530,621.182552 L530,637.767969 C530,638.43099 530.500694,639 531.103472,639 L542.920833,639 C543.523611,639 544,638.43099 544,637.767969 L544,625.690104 C544,625.511979 543.975694,625.338802 543.907639,625.185417 L543.907639,625.185417 Z M532.333333,625.650521 C532.333333,625.576302 532.420833,625.546615 532.498611,625.546615 L535.940278,625.546615 C536.018056,625.546615 536.076389,625.576302 536.076389,625.650521 L536.076389,626.184896 C536.076389,626.254167 536.022917,626.338281 535.940278,626.338281 L532.498611,626.338281 C532.420833,626.338281 532.333333,626.254167 532.333333,626.184896 L532.333333,625.650521 L532.333333,625.650521 Z M532.333333,631.983854 C532.333333,631.909635 532.420833,631.879948 532.498611,631.879948 L538.438889,631.879948 C538.516667,631.879948 538.555556,631.909635 538.555556,631.983854 L538.555556,632.518229 C538.555556,632.5875 538.521528,632.671615 538.438889,632.671615 L532.498611,632.671615 C532.420833,632.671615 532.333333,632.5875 532.333333,632.518229 L532.333333,631.983854 L532.333333,631.983854 Z M540.111111,635.684896 C540.111111,635.754167 540.077083,635.838281 539.994444,635.838281 L532.498611,635.838281 C532.420833,635.838281 532.333333,635.754167 532.333333,635.684896 L532.333333,635.150521 C532.333333,635.076302 532.420833,635.046615 532.498611,635.046615 L539.994444,635.046615 C540.072222,635.046615 540.111111,635.076302 540.111111,635.150521 L540.111111,635.684896 L540.111111,635.684896 Z M541.666667,629.351562 C541.666667,629.420833 541.632639,629.504948 541.55,629.504948 L532.498611,629.504948 C532.420833,629.504948 532.333333,629.420833 532.333333,629.351562 L532.333333,628.817188 C532.333333,628.742969 532.420833,628.713281 532.498611,628.713281 L541.55,628.713281 C541.627778,628.713281 541.666667,628.742969 541.666667,628.817188 L541.666667,629.351562 L541.666667,629.351562 Z M539.386806,625.596094 C539.114583,625.596094 538.847222,625.338802 538.847222,625.036979 L538.847222,621.771354 L542.308333,625.596094 L539.386806,625.596094 L539.386806,625.596094 Z" id="Shape" sketch:type="MSShapeGroup"></path>
        </g>
    </g>
</svg>