<?xml version="1.0" encoding="UTF-8" standalone="no"?>
<svg width="139px" height="20px" viewBox="0 0 139 20" version="1.1" xmlns="http://www.w3.org/2000/svg" xmlns:xlink="http://www.w3.org/1999/xlink" xmlns:sketch="http://www.bohemiancoding.com/sketch/ns">
    <!-- Generator: Sketch 3.4 (15575) - http://www.bohemiancoding.com/sketch -->
    <title>Donut + KPCC + 89.3</title>
    <desc>Created with Sketch.</desc>
    <defs></defs>
    <g id="Text-Articles" stroke="none" stroke-width="1" fill="none" fill-rule="evenodd" sketch:type="MSPage">
        <g id="DOCUMENT---Unarmed-and-Dangerous" sketch:type="MSArtboardGroup" transform="translate(-32.000000, -21.000000)">
            <g id="Header-and-Navigation" sketch:type="MSLayerGroup" transform="translate(32.000000, 19.000000)">
                <g id="Header" sketch:type="MSShapeGroup">
                    <g id="Donut-+-KPCC-+-89.3-+-Series-Title-Goes-He-+-Line">
                        <g id="Donut-+-KPCC-+-89.3" transform="translate(0.000000, 2.000000)">
                            <path d="M0,9.99945112 C0,4.4854273 4.48877013,0 10.0069034,0 C15.5261352,0 20.0138067,4.4854273 20.0138067,9.99945112 C20.0138067,15.5145727 15.5261352,20 10.0069034,20 C4.48877013,20 0,15.5145727 0,9.99945112 Z M10.1434682,5.34246575 C7.49916539,5.34246575 5.34615385,7.49399202 5.34615385,10.1364706 C5.34615385,12.7820434 7.49916539,14.9315068 10.1434682,14.9315068 C12.7908673,14.9315068 14.9418146,12.7820434 14.9418146,10.1364706 C14.9418146,7.49399202 12.7908673,5.34246575 10.1434682,5.34246575 L10.1434682,5.34246575 Z" id="Donut" fill="#F87E21"></path>
                            <path d="M65.4424063,19.5890411 L70.761144,19.5890411 L70.761144,14.630137 L72.7076923,12.4657534 L77.5329389,19.5890411 L83.9209073,19.5890411 L76.4088757,8.65753425 L83.6741617,0.410958904 L77.3684418,0.410958904 L70.761144,8.19178082 L70.761144,0.410958904 L65.4424063,0.410958904 L65.4424063,19.5890411 Z M84.9078895,19.5890411 L90.2266272,19.5890411 L90.2266272,14.109589 L92.8585799,14.109589 C97.6289941,14.109589 101.110848,11.7260274 101.110848,7.20547945 C101.110848,2.90410959 97.9854043,0.410958904 93.1327416,0.410958904 L84.9078895,0.410958904 L84.9078895,19.5890411 Z M90.2540434,9.94520548 L90.2540434,4.87671233 L92.8595253,4.87671233 C94.8637421,4.87671233 96.0662722,5.75342466 96.0662722,7.39726027 L96.0662722,7.45205479 C96.0662722,8.95890411 94.8637421,9.94520548 92.8881569,9.94520548 L90.2540434,9.94520548 Z M112.049901,19.9726027 C116.299408,19.9726027 118.739448,18.1369863 120.548915,15.6438356 L116.546154,12.7945205 C115.394675,14.1917808 114.215779,15.1232877 112.214398,15.1232877 C109.527613,15.1232877 107.635897,12.8767123 107.635897,10 L107.635897,9.94520548 C107.635897,7.15068493 109.527613,4.87671233 112.214398,4.87671233 C114.051282,4.87671233 115.312426,5.75342466 116.409073,7.12328767 L120.411834,4.02739726 C118.712032,1.67123288 116.189744,0.0273972603 112.269231,0.0273972603 C106.457002,0.0273972603 102.152663,4.4109589 102.152663,10 L102.152663,10.0547945 C102.152663,15.7808219 106.566667,19.9726027 112.049901,19.9726027 L112.049901,19.9726027 Z M130.418738,19.9726027 C134.668245,19.9726027 137.108284,18.1369863 138.917751,15.6438356 L134.91499,12.7945205 C133.763511,14.1917808 132.584615,15.1232877 130.583235,15.1232877 C127.89645,15.1232877 126.004734,12.8767123 126.004734,10 L126.004734,9.94520548 C126.004734,7.15068493 127.89645,4.87671233 130.583235,4.87671233 C132.420118,4.87671233 133.681262,5.75342466 134.777909,7.12328767 L138.780671,4.02739726 C137.080868,1.67123288 134.55858,0.0273972603 130.638067,0.0273972603 C124.825838,0.0273972603 120.521499,4.4109589 120.521499,10 L120.521499,10.0547945 C120.521499,15.7808219 124.935503,19.9726027 130.418738,19.9726027 L130.418738,19.9726027 Z" id="KPCC" fill="#000000"></path>
                            <path d="M35.0426677,14.1283562 C35.0426677,12.1660274 34.1524645,10.3606849 31.5865848,9.52342466 C33.7859103,8.71232877 34.4928363,6.93315068 34.4928363,5.44178082 C34.4928363,2.58986301 32.1625986,0.732191781 29.3348945,0.732191781 C26.4810079,0.732191781 24.1769527,2.58986301 24.1769527,5.44178082 C24.1769527,6.95931507 24.962426,8.79082192 27.0308393,9.52342466 C24.5173245,10.3606849 23.6271213,12.1921918 23.6271213,14.1283562 C23.6271213,17.3465753 26.0882712,19.3612329 29.3348945,19.3612329 C32.5291529,19.3612329 35.0426677,17.3465753 35.0426677,14.1283562 L35.0426677,14.1283562 Z M33.3408087,5.46794521 C33.3408087,7.84890411 31.5604024,9.10479452 29.3348945,9.10479452 C27.1093866,9.10479452 25.3027978,7.84890411 25.3027978,5.46794521 C25.3027978,3.2439726 27.2402988,1.77876712 29.3348945,1.77876712 C31.4294901,1.77876712 33.3408087,3.2439726 33.3408087,5.46794521 L33.3408087,5.46794521 Z M33.8644576,14.1283562 C33.8644576,16.640137 31.7436795,18.2623288 29.3348945,18.2623288 C26.899927,18.2623288 24.8053314,16.640137 24.8053314,14.1283562 C24.8053314,11.4334247 26.7951972,10.0467123 29.3348945,10.0467123 C31.8484093,10.0467123 33.8644576,11.459589 33.8644576,14.1283562 L33.8644576,14.1283562 Z M47.4878531,7.03780822 C47.4878531,3.61027397 45.4456223,0.732191781 41.8062624,0.732191781 C38.6381865,0.732191781 36.2294014,3.2439726 36.2294014,6.33136986 C36.2294014,9.44493151 38.5596391,11.8520548 41.7538975,11.8520548 C43.1677496,11.8520548 44.9481559,11.4334247 46.2049133,9.20945205 C45.3408926,13.9713699 42.5393709,16.9541096 39.6331194,19.1780822 L41.0993364,19.1780822 C45.2099803,16.2215068 47.4878531,11.459589 47.4878531,7.03780822 L47.4878531,7.03780822 Z M46.2572782,6.2790411 C46.2572782,8.76465753 44.3983245,10.7793151 41.7800799,10.7793151 C39.2665651,10.7793151 37.3290642,8.68616438 37.3290642,6.30520548 C37.3290642,3.92424658 39.2403827,1.80493151 41.7800799,1.80493151 C44.2674123,1.80493151 46.2572782,3.87191781 46.2572782,6.2790411 L46.2572782,6.2790411 Z M47.0943187,17.189589 C46.5183049,17.189589 46.0208384,17.6605479 46.0208384,18.2623288 C46.0208384,18.8641096 46.5183049,19.3350685 47.0943187,19.3350685 C47.7226974,19.3350685 48.1939814,18.8641096 48.1939814,18.2623288 C48.1939814,17.6605479 47.7226974,17.189589 47.0943187,17.189589 Z M61.0950978,14.1545205 C61.0950978,11.8782192 59.812158,10.3083562 57.6913799,9.62808219 C59.576516,8.9739726 60.6238138,7.53493151 60.6238138,5.49410959 C60.6238138,2.58986301 58.2412112,0.706027397 55.4135071,0.706027397 C53.2403641,0.706027397 51.355228,1.77876712 50.4388424,3.76726027 L51.4599578,4.18589041 C52.1407014,2.66835616 53.6854657,1.75260274 55.3611422,1.75260274 C57.4557379,1.75260274 59.4979686,3.32246575 59.4979686,5.49410959 C59.4979686,8.05821918 57.6651974,9.1309589 55.3349597,9.20945205 L55.3349597,10.0728767 C57.9008394,10.1513699 59.9430702,11.3549315 59.9430702,14.1545205 C59.9430702,16.6663014 57.9270219,18.2623288 55.5182369,18.2623288 C53.6854657,18.2623288 52.0359716,17.3989041 51.3290455,15.6720548 L50.2817477,16.0645205 C51.1719509,18.3669863 53.1356343,19.3612329 55.5182369,19.3612329 C58.6339479,19.3612329 61.0950978,17.3989041 61.0950978,14.1545205 L61.0950978,14.1545205 Z" id="89.3" stroke="#000000" stroke-width="0.547945205" fill="#000000"></path>
                        </g>
                    </g>
                </g>
            </g>
        </g>
    </g>
</svg>