<svg xmlns="http://www.w3.org/2000/svg" xmlns:xlink="http://www.w3.org/1999/xlink" version="1.1" id="Layer_1" x="0px" y="0px" width="100px" height="100px" viewBox="0 0 100 100" enable-background="new 0 0 100 100" xml:space="preserve">
<path d="M49.701,40.913c0.552-0.154,1.069-0.347,1.557-0.573c0.487-0.229,0.895-0.498,1.215-0.809  c0.521-0.505,0.609-0.881,0.254-1.126c-0.353-0.246-1.159-0.463-2.424-0.652l-3.882,3.685c0.478-0.025,1.008-0.08,1.587-0.164  C48.584,41.188,49.15,41.069,49.701,40.913z"/>
<path d="M51.33,34.744l3.326-3.112c-0.423,0.013-0.866,0.057-1.334,0.132c-0.461,0.074-0.929,0.183-1.394,0.324  c-0.468,0.142-0.897,0.312-1.296,0.513c-0.398,0.2-0.742,0.434-1.027,0.698c-0.451,0.416-0.539,0.73-0.265,0.948  C49.621,34.462,50.283,34.629,51.33,34.744z"/>
<path d="M75.028,49.957c0.348,0,0.679-0.138,0.925-0.382l23.665-23.077c0.372-0.373,0.485-0.934,0.283-1.423  c-0.201-0.488-0.678-0.806-1.206-0.806h-72.69c-0.315,0-0.619,0.113-0.857,0.32L0.589,47.666c-0.41,0.357-0.557,0.932-0.366,1.441  c0.19,0.512,0.679,0.85,1.224,0.85H75.028z M37.502,38.996l5.334-0.042c-0.807,0.717-1.043,1.281-0.714,1.693  c0.333,0.415,1.015,0.679,2.053,0.792l4.264-3.989c-0.099-0.024-0.239-0.049-0.415-0.079c-0.183-0.029-0.383-0.054-0.605-0.078  c-0.79-0.114-1.547-0.25-2.264-0.408c-0.716-0.157-1.276-0.37-1.679-0.642c-0.407-0.268-0.591-0.607-0.554-1.016  c0.04-0.408,0.403-0.923,1.093-1.543c0.704-0.633,1.565-1.198,2.589-1.696c1.021-0.5,2.109-0.927,3.267-1.283  c1.157-0.358,2.354-0.646,3.591-0.864c1.235-0.219,2.432-0.367,3.584-0.445l1.565-1.466l2.194-0.087l-1.561,1.475  c1.043,0.026,1.957,0.115,2.739,0.268c0.786,0.156,1.376,0.387,1.775,0.694c0.403,0.309,0.583,0.705,0.548,1.189  c-0.035,0.485-0.361,1.066-0.984,1.747l-5.31,0.125c0.517-0.517,0.663-0.948,0.445-1.292c-0.221-0.343-0.749-0.502-1.595-0.478  l-3.596,3.398c0.26,0.032,0.521,0.064,0.794,0.096c0.272,0.033,0.551,0.073,0.847,0.118c1.581,0.224,2.668,0.521,3.273,0.887  c0.604,0.37,0.929,0.762,0.977,1.174c0.049,0.414-0.093,0.83-0.432,1.25c-0.342,0.42-0.678,0.793-1.01,1.123  c-0.295,0.288-0.801,0.653-1.527,1.093c-0.719,0.44-1.656,0.871-2.803,1.29c-1.15,0.416-2.499,0.786-4.046,1.105  c-1.551,0.318-3.312,0.505-5.276,0.561l-1.727,1.631l-2.263-0.021l1.733-1.622c-2.734-0.116-4.481-0.559-5.24-1.328  C35.812,41.565,36.125,40.458,37.502,38.996z"/>
<path d="M76.558,54.748H0.45v5.226h77.191c0.69,0,1.355-0.275,1.846-0.766L100,38.884v-7.58L76.558,54.748z"/>
<path d="M0.45,64.761v5.226h79.804c0.691,0,1.356-0.276,1.846-0.766L100,51.398v-7.467L79.174,64.761H0.45z"/>
</svg>