<?xml version="1.0" standalone="no"?>
<!DOCTYPE svg PUBLIC "-//W3C//DTD SVG 20010904//EN"
 "http://www.w3.org/TR/2001/REC-SVG-20010904/DTD/svg10.dtd">
<svg version="1.0" xmlns="http://www.w3.org/2000/svg"
 width="378.000000pt" height="378.000000pt" viewBox="0 0 378.000000 378.000000"
 preserveAspectRatio="xMidYMid meet">
<metadata>
Created by potrace 1.11, written by Peter Selinger 2001-2013
</metadata>
<g transform="translate(0.000000,378.000000) scale(0.100000,-0.100000)"
fill="#000000" stroke="none">
<path d="M1885 3504 c-16 -14 -56 -49 -88 -77 -62 -56 -80 -72 -177 -157 -34
-30 -77 -68 -95 -85 -18 -16 -56 -50 -85 -75 -28 -25 -64 -56 -79 -70 -16 -14
-56 -50 -91 -80 -35 -30 -78 -68 -96 -85 -17 -16 -60 -55 -94 -85 -35 -30 -73
-65 -86 -78 -13 -13 -24 -21 -24 -18 0 2 -20 -15 -45 -38 -24 -24 -68 -63 -96
-87 -29 -24 -69 -60 -90 -79 -62 -57 -109 -98 -109 -96 0 2 -19 -15 -43 -38
-24 -23 -57 -52 -73 -65 -16 -13 -54 -47 -84 -75 -69 -63 -195 -174 -226 -199
-29 -22 -27 -29 11 -71 17 -18 54 -60 84 -94 30 -34 57 -62 61 -62 3 0 21 16
40 35 19 19 41 35 48 35 7 0 10 5 7 10 -3 6 -3 10 2 10 4 0 24 15 44 33 20 17
67 59 104 92 38 33 73 65 79 70 6 6 45 39 86 75 41 36 95 84 120 107 69 64
104 93 113 93 5 0 5 5 2 10 -3 6 -2 10 3 10 5 0 20 9 33 21 62 53 144 126 169
149 15 14 50 45 79 70 29 25 75 65 101 90 27 25 70 63 96 85 26 22 56 49 68
60 12 11 52 47 91 80 38 33 82 72 97 88 15 15 30 27 33 27 3 0 23 18 45 40 22
22 45 40 51 40 5 0 7 5 4 10 -3 6 1 10 9 10 9 0 16 4 16 9 0 5 6 11 14 14 14
5 31 -8 128 -99 20 -18 42 -34 48 -34 6 0 8 -4 5 -10 -3 -5 -2 -10 3 -10 4 0
22 -12 39 -27 17 -16 58 -51 90 -79 32 -29 75 -67 95 -85 98 -90 120 -109 123
-109 2 0 19 -15 38 -32 19 -18 63 -58 97 -88 66 -57 82 -72 146 -130 22 -19
70 -62 109 -95 38 -33 82 -71 96 -85 15 -14 52 -47 84 -75 31 -27 74 -65 94
-84 20 -18 60 -54 90 -80 30 -25 65 -57 78 -71 12 -14 23 -22 23 -18 0 3 21
-15 48 -40 26 -26 69 -64 95 -86 l47 -39 18 21 c68 78 130 147 145 162 18 18
18 19 -13 47 -18 15 -42 37 -54 48 -12 11 -53 47 -91 80 -37 33 -80 71 -95 85
-14 14 -46 41 -71 61 -24 20 -67 58 -96 85 -28 27 -73 67 -99 89 -27 22 -60
52 -73 68 -14 15 -29 27 -33 27 -4 0 -24 17 -45 38 -63 60 -124 112 -134 112
-6 0 -7 5 -4 10 3 6 3 10 -2 10 -8 0 -42 27 -103 83 -19 18 -73 66 -120 107
-46 41 -99 90 -117 108 -18 18 -33 30 -33 28 0 -4 -31 23 -120 106 -27 26 -50
45 -50 42 0 -3 -10 5 -22 18 -13 13 -61 57 -108 98 -47 40 -96 84 -110 96 -14
12 -42 38 -62 58 -33 31 -70 57 -80 56 -2 0 -16 -12 -33 -26z"/>
<path d="M1890 2908 c-19 -17 -60 -54 -92 -82 -86 -78 -102 -91 -110 -88 -5 1
-7 -2 -5 -7 1 -5 -1 -10 -5 -11 -4 0 -22 -15 -40 -33 -18 -18 -54 -49 -78 -71
-25 -21 -68 -59 -95 -85 -28 -25 -66 -60 -85 -76 -91 -79 -206 -180 -216 -189
-6 -6 -42 -38 -79 -71 -38 -33 -79 -70 -92 -82 -13 -12 -23 -20 -23 -18 0 2
-17 -13 -38 -33 -21 -20 -65 -59 -97 -87 -32 -27 -76 -67 -97 -87 l-39 -38 -2
-810 -3 -810 156 -1 c85 0 629 -1 1208 -1 l1052 -1 20 21 c19 20 20 40 20 779
0 418 -3 775 -7 793 -7 35 -58 92 -176 195 -32 28 -68 59 -81 70 -12 11 -51
45 -86 75 -35 30 -74 65 -87 78 -13 12 -26 22 -28 22 -3 0 -27 22 -55 50 -27
27 -50 48 -50 45 0 -2 -10 6 -23 18 -12 12 -55 51 -96 87 -40 36 -86 76 -101
90 -15 14 -56 50 -91 80 -34 30 -77 69 -95 85 -17 17 -53 48 -80 70 -26 22
-59 52 -73 68 -13 15 -28 27 -33 27 -5 0 -21 13 -36 29 l-27 30 -35 -31z m484
-719 c113 -4 276 -51 276 -81 0 -6 3 -9 6 -5 7 7 94 -78 94 -92 0 -4 7 -22 15
-39 31 -61 42 -132 40 -253 -4 -204 -60 -302 -199 -355 l-50 -18 30 -13 c16
-6 37 -12 47 -13 9 0 17 -4 17 -9 0 -5 10 -11 23 -15 30 -7 109 -75 101 -87
-3 -5 -1 -9 4 -9 7 0 25 -45 39 -100 7 -26 6 -334 -1 -365 -4 -16 -9 -42 -11
-57 -14 -94 -94 -188 -195 -228 -138 -56 -457 -58 -561 -4 -16 8 -29 12 -29 9
0 -10 -84 51 -105 77 -33 39 -64 110 -72 163 -7 54 -10 161 -4 176 5 13 34 15
174 15 92 1 167 0 168 0 0 -1 3 -32 6 -71 6 -81 32 -139 71 -158 37 -19 129
-13 154 10 39 35 51 74 56 189 5 113 -9 229 -31 265 -24 40 -79 65 -162 74
-22 3 -49 7 -60 9 -11 2 -22 5 -25 5 -8 2 -6 256 3 262 4 3 29 7 55 8 48 1
108 17 128 32 6 5 13 7 16 4 2 -3 15 14 27 38 19 33 25 63 29 138 5 97 -10
199 -30 199 -5 0 -7 4 -4 9 9 15 -71 44 -119 43 -67 -2 -105 -47 -105 -128 0
-23 -6 -46 -12 -51 -7 -4 -87 -8 -177 -8 l-163 -1 5 86 c6 101 13 137 33 168
8 12 12 22 8 22 -7 0 52 56 92 87 51 39 227 84 304 77 14 -2 56 -4 94 -5z
m-783 -28 c0 -3 1 -394 2 -869 l2 -863 -175 3 -175 3 1 672 c0 638 -1 671 -18
662 -9 -5 -21 -15 -25 -22 -11 -18 -107 -97 -118 -97 -5 0 -16 -7 -25 -15 -10
-9 -27 -17 -39 -20 -21 -4 -21 -2 -21 151 0 94 4 153 9 149 6 -3 13 1 18 8 4
7 23 22 41 32 17 11 32 24 32 29 0 5 3 7 6 4 8 -9 96 80 132 134 l32 46 160 0
c88 0 160 -3 161 -7z"/>
</g>
</svg>
