<?xml version="1.0" standalone="no"?>
<!DOCTYPE svg PUBLIC "-//W3C//DTD SVG 20010904//EN"
 "http://www.w3.org/TR/2001/REC-SVG-20010904/DTD/svg10.dtd">
<svg version="1.0" xmlns="http://www.w3.org/2000/svg"
 width="750.000000pt" height="750.000000pt" viewBox="0 0 750.000000 750.000000"
 preserveAspectRatio="xMidYMid meet">
<metadata>
Created by potrace 1.11, written by Peter Selinger 2001-2013
</metadata>
<g transform="translate(0.000000,750.000000) scale(0.100000,-0.100000)"
fill="#000000" stroke="none">
<path d="M2780 5544 c-75 -20 -131 -55 -179 -111 -78 -90 -99 -224 -95 -595 3
-258 12 -331 50 -413 63 -135 189 -197 397 -194 155 2 246 34 319 110 86 91
102 177 102 554 0 349 -13 436 -79 527 -39 53 -116 101 -196 122 -74 19 -250
19 -319 0z m247 -204 c58 -35 66 -89 67 -425 0 -159 -3 -311 -6 -336 -14 -103
-50 -147 -123 -151 -96 -5 -141 23 -166 105 -11 35 -14 638 -3 703 14 88 56
123 149 124 33 0 61 -7 82 -20z"/>
<path d="M743 5542 l-53 -3 0 -647 0 -647 135 0 135 0 0 256 0 257 153 4 c163
6 213 17 274 64 81 62 116 164 116 336 -1 112 -29 209 -82 276 -53 67 -107 92
-213 98 -101 7 -393 10 -465 6z m416 -212 c47 -19 65 -69 65 -180 -1 -157 -33
-190 -184 -190 l-80 0 0 188 c0 104 2 191 5 193 9 10 166 1 194 -11z"/>
<path d="M1628 5542 l-48 -3 0 -647 0 -647 133 0 132 0 5 270 5 270 75 1 c133
1 169 -17 189 -94 5 -21 11 -126 13 -234 3 -109 7 -201 11 -205 9 -8 264 -11
278 -2 6 3 7 20 1 45 -5 22 -10 78 -11 124 -7 263 -16 320 -60 382 -25 37 -91
78 -124 78 -28 0 -28 17 1 23 74 16 135 87 158 184 16 68 12 231 -6 283 -31
86 -111 155 -193 165 -55 7 -479 12 -559 7z m432 -217 c42 -22 61 -70 61 -160
1 -139 -35 -175 -178 -183 l-93 -5 0 180 c0 99 2 182 5 184 12 12 176 -1 205
-16z"/>
<path d="M3515 5540 l-40 -5 -1 -642 c0 -447 3 -643 10 -645 10 -3 184 -2 241
1 20 1 21 6 20 254 l0 252 150 6 c177 7 222 21 295 86 62 56 89 133 96 271 7
151 -33 277 -109 351 -55 53 -118 69 -276 71 -75 0 -183 2 -241 3 -58 1 -123
0 -145 -3z m433 -209 c40 -21 56 -68 59 -171 3 -166 -27 -200 -179 -200 l-83
0 0 185 c0 136 3 188 12 193 19 12 166 6 191 -7z"/>
<path d="M5138 5313 c-79 -69 -175 -155 -214 -190 -40 -35 -83 -73 -95 -84
-13 -11 -37 -33 -54 -47 -16 -15 -131 -117 -255 -226 -303 -268 -361 -319
-374 -331 -6 -6 -49 -44 -96 -85 -46 -41 -90 -80 -97 -86 -6 -6 -100 -89 -207
-184 -108 -95 -196 -176 -196 -179 0 -11 171 -201 180 -201 5 0 20 10 32 23
13 12 64 58 113 101 50 43 120 106 157 138 37 33 76 68 86 77 11 9 52 45 92
81 90 79 138 122 210 186 31 27 92 81 135 120 44 39 166 147 270 239 105 92
222 196 260 230 178 158 209 184 213 181 2 -3 33 -31 70 -63 92 -81 440 -389
482 -427 19 -17 57 -51 85 -75 27 -24 84 -74 125 -111 496 -442 791 -700 799
-700 4 0 18 12 31 28 13 15 53 60 89 101 l65 73 -24 20 c-14 11 -41 34 -60 51
-19 18 -73 66 -120 107 -47 41 -87 77 -90 80 -3 3 -61 54 -130 115 -69 60
-130 114 -136 120 -6 5 -44 39 -85 75 -40 36 -81 72 -89 80 -9 8 -50 44 -91
80 -41 35 -76 67 -79 70 -3 3 -45 41 -95 85 -94 83 -256 226 -265 235 -3 3
-41 37 -85 75 -135 118 -147 129 -199 176 -135 122 -191 169 -203 169 -6 0
-76 -57 -155 -127z"/>
<path d="M5265 4823 c-37 -31 -117 -102 -310 -273 -82 -73 -181 -161 -220
-195 -38 -34 -131 -115 -205 -180 -74 -66 -137 -121 -140 -124 -3 -4 -25 -24
-51 -46 -63 -55 -196 -174 -239 -212 l-35 -31 1 -686 c0 -377 -2 -686 -6 -686
-10 0 -39 100 -45 155 -24 229 -41 315 -78 418 -20 54 -21 67 -11 97 14 41 8
60 -43 139 -110 168 -247 299 -398 381 -64 34 -209 86 -266 95 -186 29 -311
25 -533 -19 -148 -29 -290 -33 -366 -10 -30 9 -90 34 -133 55 -140 71 -286 86
-412 44 -58 -19 -234 -114 -498 -266 -103 -60 -193 -109 -201 -109 -7 0 -19 7
-26 16 -25 29 -71 14 -103 -34 -16 -24 -36 -46 -44 -49 -9 -4 -35 5 -59 18
-59 32 -74 21 -96 -65 -11 -45 -36 -98 -74 -158 -53 -84 -57 -93 -46 -120 7
-19 8 -38 2 -53 -7 -19 -72 -100 -163 -202 -20 -22 -20 -23 -1 -44 25 -27 60
-45 117 -60 44 -11 49 -10 97 20 27 17 50 28 50 26 0 -17 -41 -83 -55 -88 -27
-11 -18 -55 15 -72 41 -21 77 -19 140 11 77 37 130 37 168 1 l29 -28 44 47
c72 76 82 85 109 91 14 3 48 21 75 39 60 41 241 87 254 65 10 -16 -59 -255
-94 -326 -14 -29 -55 -86 -90 -125 -36 -40 -75 -90 -87 -113 -30 -53 -62 -75
-123 -83 -78 -10 -149 -53 -190 -117 l-18 -28 28 11 c23 9 26 8 21 -5 -6 -17
20 -20 43 -6 10 7 19 4 27 -7 11 -15 32 -17 160 -15 l147 2 81 47 c45 26 107
67 138 93 32 25 101 82 155 125 120 97 214 192 245 248 27 50 50 58 75 27 36
-46 184 -182 219 -202 12 -7 44 -58 44 -71 0 -2 -26 -12 -57 -21 -63 -18 -113
-52 -133 -90 -12 -22 -11 -27 5 -45 10 -11 22 -17 28 -13 12 7 69 10 204 12
94 1 104 3 133 27 17 15 37 40 45 58 8 17 26 51 40 76 39 69 34 108 -30 234
-30 59 -52 112 -49 117 3 6 44 8 97 5 51 -3 124 -7 162 -8 l70 -2 0 -106 c0
-58 4 -146 9 -195 11 -112 6 -119 -91 -129 -107 -10 -193 -48 -193 -85 0 -14
18 -23 83 -41 101 -27 162 -31 297 -15 124 14 135 18 150 54 23 57 378 381
417 381 6 0 23 -20 37 -43 43 -75 152 -140 251 -152 81 -10 104 -16 120 -32
32 -32 9 -53 -75 -67 -41 -8 -105 -48 -120 -76 -9 -16 -8 -18 5 -14 11 5 13 2
9 -9 -7 -20 16 -25 191 -43 68 -7 132 15 194 68 33 28 64 62 69 77 l9 26 1157
0 1158 0 19 24 c18 22 19 50 20 755 0 402 0 751 -1 776 -3 82 35 43 -544 555
-137 121 -254 225 -260 230 -6 6 -90 80 -186 165 -96 85 -177 157 -180 160 -3
3 -16 15 -30 27 l-25 22 -30 -26z m576 -735 c233 -42 342 -194 333 -465 -6
-207 -68 -303 -229 -359 l-30 -10 55 -17 c109 -36 184 -106 205 -192 4 -16 9
-39 12 -50 2 -11 4 -88 4 -171 0 -244 -36 -352 -141 -423 -161 -110 -548 -112
-711 -4 -79 52 -127 159 -130 288 -3 123 -23 110 170 110 l169 1 6 -69 c12
-132 45 -172 141 -172 57 0 67 3 94 29 41 40 54 109 49 265 -3 99 -8 135 -23
166 -24 47 -77 80 -144 89 -25 4 -62 9 -81 12 l-35 5 2 126 c1 69 4 128 7 130
2 2 23 6 47 8 130 13 178 42 198 122 17 64 15 224 -2 265 -29 67 -102 99 -173
75 -47 -15 -70 -53 -78 -127 -3 -30 -6 -55 -6 -55 0 0 -75 0 -167 1 l-168 0
-3 51 c-4 69 22 185 51 228 47 68 149 125 260 144 68 12 251 11 318 -1z m-883
-879 l2 -866 -170 0 -170 0 0 679 0 680 -59 -55 c-50 -46 -167 -127 -184 -127
-7 0 -6 285 1 296 4 5 32 25 63 45 63 42 125 102 166 162 15 23 31 44 35 47 4
3 76 5 160 5 l153 0 3 -866z"/>
</g>
</svg>
