<?xml version="1.0" standalone="no"?>
<!DOCTYPE svg PUBLIC "-//W3C//DTD SVG 20010904//EN"
 "http://www.w3.org/TR/2001/REC-SVG-20010904/DTD/svg10.dtd">
<svg version="1.0" xmlns="http://www.w3.org/2000/svg"
 width="449.000000pt" height="449.000000pt" viewBox="0 0 449.000000 449.000000"
 preserveAspectRatio="xMidYMid meet">
<metadata>
Created by potrace 1.11, written by Peter Selinger 2001-2013
</metadata>
<g transform="translate(0.000000,449.000000) scale(0.100000,-0.100000)"
fill="#000000" stroke="none">
<path d="M2222 3848 c-26 -24 -49 -45 -52 -48 -3 -3 -43 -39 -90 -80 -47 -41
-87 -77 -90 -80 -3 -3 -41 -36 -85 -75 -44 -38 -96 -84 -115 -101 -19 -17
-120 -107 -225 -199 -288 -255 -321 -284 -436 -386 -58 -52 -141 -125 -184
-164 -44 -38 -102 -90 -130 -115 -28 -25 -84 -74 -125 -110 -40 -36 -92 -81
-114 -101 l-40 -37 36 -43 c20 -24 61 -71 91 -104 l55 -60 24 21 c12 11 122
108 243 214 121 107 225 199 231 204 11 11 20 19 159 141 44 38 82 72 85 75 3
3 41 37 85 75 44 39 85 75 91 80 20 19 159 142 209 186 28 24 66 58 85 75 19
17 107 95 194 173 l160 141 25 -23 c36 -33 55 -50 516 -457 226 -200 444 -393
485 -430 41 -37 100 -89 130 -115 64 -56 155 -136 298 -264 56 -50 106 -91
110 -91 4 0 47 45 96 101 73 83 86 103 75 113 -8 7 -111 98 -229 202 -118 104
-233 205 -255 225 -22 20 -85 76 -141 125 -55 49 -132 118 -172 153 -39 35
-82 72 -94 83 -13 11 -39 34 -58 51 -19 18 -73 66 -120 107 -47 41 -101 89
-120 106 -291 262 -537 474 -547 474 -8 0 -35 -19 -61 -42z"/>
<path d="M2170 3199 c-63 -56 -131 -116 -150 -133 -19 -17 -228 -202 -465
-411 -236 -209 -446 -394 -465 -412 l-35 -32 -1 -648 c-1 -357 -2 -719 -3
-807 -1 -87 1 -161 4 -164 2 -3 548 -6 1211 -6 l1206 -1 19 24 c18 22 19 50
19 798 0 666 -2 778 -15 803 -13 26 -59 69 -270 255 -122 108 -278 246 -355
315 -41 37 -93 82 -115 101 -21 19 -46 41 -55 49 -18 16 -112 100 -260 230
-52 46 -109 96 -125 112 l-31 28 -114 -101z m685 -666 c223 -52 318 -199 309
-475 -6 -179 -67 -283 -193 -328 -33 -13 -61 -24 -61 -26 0 -1 24 -10 53 -19
128 -42 191 -111 212 -235 13 -74 8 -309 -9 -387 -20 -98 -40 -135 -98 -188
-81 -73 -202 -106 -388 -106 -284 -1 -432 84 -470 268 -14 69 -19 178 -9 194
10 17 339 21 340 4 7 -142 25 -190 79 -218 26 -13 47 -16 83 -12 105 13 122
50 122 265 0 138 -2 159 -21 195 -26 49 -80 82 -154 91 -30 4 -59 8 -65 9 -5
1 -16 3 -22 3 -10 2 -13 36 -13 135 l0 132 55 2 c116 5 173 39 194 118 17 61
14 227 -4 273 -21 51 -65 76 -132 75 -77 -1 -108 -35 -117 -129 -2 -27 -5 -51
-5 -54 -1 -4 -289 -5 -328 -1 -16 1 -17 75 -2 157 26 142 111 220 284 259 76
18 280 16 360 -2z m-907 -875 l2 -865 -170 -1 -170 0 0 681 0 681 -47 -46
c-52 -51 -182 -140 -193 -133 -4 2 -7 70 -7 149 l0 145 56 35 c66 41 146 117
181 175 14 22 31 41 39 43 8 2 80 3 160 3 l146 -1 3 -866z"/>
<path d="M1 1608 c-1 -21 4 -38 9 -38 12 0 12 27 0 55 -7 16 -9 13 -9 -17z"/>
</g>
</svg>
